<svg width="1024" height="1024" viewBox="0 0 1024 1024" fill="none" xmlns="http://www.w3.org/2000/svg">
<rect width="1024" height="1024" fill="white"/>
<path fill-rule="evenodd" clip-rule="evenodd" d="M264.209 333.066C253.162 328.307 249.303 316.024 254.262 304.819C259.229 293.593 272.922 283.551 296.737 282.501C297.289 282.476 297.756 282.904 297.78 283.456C297.805 284.007 297.377 284.474 296.825 284.499C273.516 285.527 260.66 295.303 256.091 305.628C251.512 315.975 255.127 326.976 265 331.229C269.337 333.097 275.517 332.857 280.77 332.077C283.367 331.692 285.683 331.183 287.35 330.771C288.183 330.565 288.852 330.384 289.311 330.254C289.541 330.189 289.718 330.138 289.836 330.102L289.91 330.08L289.97 330.062L290.003 330.052L290.01 330.05L290.012 330.049C290.372 329.937 290.765 330.038 291.028 330.31C291.29 330.581 291.377 330.978 291.252 331.334L268.974 395.111C268.81 395.578 269.013 396.094 269.451 396.326C269.686 396.449 269.946 396.587 270.23 396.737C271.708 397.519 273.838 398.649 276.45 400.042C281.673 402.829 288.823 406.672 296.526 410.893C311.915 419.324 329.572 429.296 338.474 435.374C354.63 446.404 360.039 462.328 364.58 477.906C364.895 478.984 365.205 480.06 365.514 481.133L365.521 481.159C369.701 495.661 373.686 509.489 385.204 519.211C391.339 524.388 396.585 526.561 400.641 527.328C401.096 527.414 401.543 527.157 401.716 526.727L432.407 450.339C432.653 449.727 433.415 449.517 433.941 449.916L590.842 569.26C591.564 569.809 591.242 570.957 590.34 571.051L431.387 587.512C430.872 587.565 430.484 588.006 430.478 588.525C430.282 606.601 415.98 621.58 397.698 622.393C388.942 622.782 380.807 619.854 374.509 614.721C374.09 614.379 373.475 614.414 373.109 614.813L372.351 615.643C372.172 615.838 371.922 615.955 371.657 615.967L354.521 616.729C353.97 616.753 353.502 616.326 353.478 615.774C353.453 615.222 353.881 614.755 354.433 614.73L370.741 614.005C371.006 613.994 371.255 613.877 371.434 613.681L371.634 613.463C371.999 613.064 371.979 612.448 371.602 612.061C365.93 606.243 362.291 598.4 361.902 589.645C361.54 581.509 364.043 573.91 368.517 567.822C368.858 567.358 368.759 566.701 368.288 566.371C363.703 563.161 359.148 559.695 355.421 556.303C343.601 545.542 340.728 533.805 338.58 521.695C338.372 520.523 338.17 519.348 337.969 518.17L337.968 518.163L337.968 518.163C336.085 507.168 334.162 495.932 326.327 484.459C317.122 470.978 298.619 460.1 282.244 452.566C274.085 448.812 266.506 445.911 260.967 443.948C258.198 442.967 255.94 442.221 254.376 441.721C254.164 441.653 253.964 441.59 253.778 441.531C253.265 441.369 252.718 441.646 252.54 442.154L245.47 462.392C245.286 462.919 245.571 463.495 246.099 463.676C288.765 478.29 320.265 517.817 322.389 565.598C325.161 627.944 276.867 680.733 214.52 683.505C152.173 686.277 99.3844 637.982 96.6124 575.636C93.8405 513.289 142.135 460.5 204.482 457.728C217.643 457.143 230.378 458.834 242.307 462.452C242.823 462.608 243.373 462.332 243.551 461.823L251.286 439.679L266.517 396.077L288.425 333.362C288.556 332.988 288.215 332.617 287.83 332.713V332.713C286.119 333.136 283.739 333.659 281.064 334.056C275.772 334.841 269.1 335.172 264.209 333.066ZM410.984 554.743C409.901 554.86 409.698 556.566 410.685 557.027C421.306 561.995 429.03 572.264 430.297 584.577C430.355 585.138 430.852 585.557 431.413 585.499L585.106 569.582C586.007 569.489 586.329 568.34 585.608 567.792L434.818 453.097C434.293 452.697 433.531 452.907 433.285 453.52L403.513 527.617C403.504 527.642 403.521 527.668 403.547 527.67V527.67C405.707 527.763 407.386 527.461 408.511 527.145C409.074 526.987 409.499 526.825 409.775 526.706C409.914 526.647 410.015 526.599 410.078 526.567L410.114 526.55C410.127 526.543 410.137 526.537 410.144 526.534L410.151 526.53L410.155 526.528C410.519 526.324 410.972 526.367 411.291 526.637C411.61 526.908 411.727 527.35 411.583 527.743L402.648 552.186C402.393 552.882 402.958 553.604 403.695 553.524L511.61 541.791C512.159 541.732 512.644 542.129 512.694 542.679L514.817 566.227C514.866 566.77 514.472 567.252 513.93 567.311V567.311C513.374 567.371 512.876 566.964 512.826 566.407L510.887 544.906C510.837 544.349 510.339 543.941 509.783 544.002L410.984 554.743ZM399.584 553.971C399.552 553.974 399.519 553.974 399.487 553.971C397.902 553.819 396.287 553.776 394.65 553.849C394.621 553.85 394.592 553.852 394.562 553.853C393.814 553.888 393.258 553.141 393.538 552.446L402.434 530.304C402.597 529.898 403.005 529.648 403.441 529.667C403.448 529.667 403.454 529.667 403.461 529.668C404.832 529.727 406.038 529.643 407.064 529.491C407.868 529.372 408.573 530.153 408.294 530.916L399.979 553.661C399.917 553.831 399.764 553.951 399.584 553.971V553.971ZM369.712 564.926C370.127 565.216 370.693 565.146 371.038 564.774C375.976 559.457 382.594 555.694 390.097 554.354C390.442 554.292 390.734 554.06 390.864 553.735L400.195 530.512C400.432 529.921 400.065 529.262 399.443 529.122C395.161 528.158 389.896 525.787 383.914 520.739C371.911 510.608 367.766 496.201 363.629 481.819L363.624 481.799C363.304 480.687 362.984 479.575 362.66 478.466C358.124 462.904 352.866 447.622 337.346 437.025C328.54 431.013 310.974 421.089 295.565 412.647C287.87 408.43 280.727 404.592 275.508 401.807C272.899 400.414 270.771 399.286 269.295 398.505L268.574 398.124V398.124C268.284 397.971 267.925 398.112 267.817 398.422L253.86 438.375C253.673 438.91 253.968 439.493 254.508 439.664C254.659 439.712 254.818 439.763 254.985 439.816C256.567 440.322 258.844 441.075 261.635 442.063C267.215 444.04 274.852 446.963 283.08 450.749C299.481 458.295 318.44 469.361 327.979 483.331C336.072 495.182 338.063 506.837 339.938 517.813C340.14 518.999 340.341 520.176 340.549 521.345C342.677 533.345 345.454 544.524 356.768 554.824C360.492 558.215 365.084 561.698 369.712 564.926ZM395.436 587.446L374.336 610.509C373.955 610.926 373.304 610.946 372.913 610.539C367.641 605.074 364.264 597.738 363.9 589.556C363.108 571.731 376.915 556.639 394.739 555.847C412.564 555.055 427.655 568.862 428.448 586.686C429.24 604.51 415.433 619.602 397.609 620.395C389.427 620.759 381.82 618.046 375.908 613.28C375.469 612.926 375.431 612.276 375.812 611.859L396.912 588.796C397.285 588.388 397.257 587.756 396.849 587.383C396.442 587.01 395.809 587.038 395.436 587.446ZM245.41 465.554C244.893 465.377 244.331 465.653 244.151 466.169L207.48 571.144C207.298 571.666 206.728 571.941 206.207 571.758C205.685 571.576 205.41 571.006 205.592 570.485L242.23 465.602C242.417 465.068 242.124 464.486 241.583 464.323C229.907 460.799 217.446 459.154 204.571 459.726C143.328 462.449 95.8876 514.304 98.6105 575.547C101.333 636.79 153.188 684.23 214.431 681.507C275.674 678.784 323.114 626.93 320.391 565.687C318.304 518.736 287.341 479.898 245.41 465.554ZM434.924 389.671C434.414 389.46 434.172 388.875 434.384 388.364C434.595 387.854 435.18 387.612 435.69 387.824L456.995 396.657L481.805 405.274C482.055 405.361 482.33 405.345 482.569 405.229L499.082 397.23C499.579 396.989 500.177 397.197 500.418 397.694C500.659 398.191 500.451 398.789 499.954 399.03L482.695 407.391C482.456 407.506 482.181 407.522 481.931 407.435L458.067 399.147C457.572 398.975 457.029 399.214 456.821 399.695L435.472 449.174C435.254 449.681 434.665 449.915 434.158 449.696C433.651 449.477 433.417 448.889 433.636 448.382L454.917 399.059C455.138 398.546 454.898 397.952 454.382 397.739L434.924 389.671Z" fill="#4ABEEA"/>
<path d="M254.262 304.819L262.949 308.664L262.949 308.664L254.262 304.819ZM264.209 333.066L260.451 341.791L260.451 341.791L264.209 333.066ZM296.737 282.501L296.319 273.01L296.319 273.01L296.737 282.501ZM297.78 283.456L307.271 283.037L307.271 283.037L297.78 283.456ZM296.825 284.499L297.244 293.989L297.244 293.989L296.825 284.499ZM256.091 305.628L264.778 309.473L264.778 309.473L256.091 305.628ZM265 331.229L261.242 339.954L261.242 339.954L265 331.229ZM280.77 332.077L282.165 341.474L282.165 341.474L280.77 332.077ZM287.35 330.771L285.069 321.549L285.069 321.549L287.35 330.771ZM289.311 330.254L291.89 339.397L291.89 339.397L289.311 330.254ZM289.836 330.102L292.555 339.205L292.548 339.207L292.541 339.209L289.836 330.102ZM289.91 330.08L292.658 339.174L292.644 339.179L292.629 339.183L289.91 330.08ZM289.97 330.062L292.745 339.148L292.731 339.152L292.717 339.156L289.97 330.062ZM290.003 330.052L292.799 339.131L292.789 339.135L292.778 339.138L290.003 330.052ZM290.01 330.05L287.214 320.971L287.218 320.969L290.01 330.05ZM290.012 330.049L292.83 339.122L292.817 339.126L292.804 339.13L290.012 330.049ZM291.028 330.31L297.861 323.71L297.862 323.711L291.028 330.31ZM291.252 331.334L282.284 328.201L282.284 328.201L291.252 331.334ZM270.23 396.737L274.672 388.34L274.672 388.34L270.23 396.737ZM276.45 400.042L280.922 391.661L280.922 391.661L276.45 400.042ZM296.526 410.893L301.091 402.561L301.091 402.561L296.526 410.893ZM338.474 435.374L333.117 443.219L333.117 443.219L338.474 435.374ZM364.58 477.906L355.46 480.565L355.46 480.564L364.58 477.906ZM365.514 481.133L356.387 483.77L356.385 483.763L365.514 481.133ZM365.521 481.159L374.648 478.522L374.65 478.528L365.521 481.159ZM385.204 519.211L391.332 511.951L391.332 511.951L385.204 519.211ZM432.407 450.339L423.592 446.798L423.592 446.798L432.407 450.339ZM433.941 449.916L439.692 442.355L433.941 449.916ZM590.842 569.26L596.594 561.699L596.594 561.699L590.842 569.26ZM590.34 571.051L589.361 561.601L589.362 561.601L590.34 571.051ZM372.351 615.643L379.36 622.055L379.36 622.055L372.351 615.643ZM355.421 556.303L349.026 563.328L349.026 563.328L355.421 556.303ZM338.58 521.695L347.934 520.035L347.934 520.035L338.58 521.695ZM337.969 518.17L328.605 519.773L328.604 519.766L328.603 519.759L337.969 518.17ZM337.968 518.163L328.601 519.752L328.503 519.172L328.477 518.585L337.968 518.163ZM337.968 518.163L347.331 516.56L347.432 517.146L347.458 517.741L337.968 518.163ZM326.327 484.459L318.482 489.816L318.482 489.816L326.327 484.459ZM282.244 452.566L278.273 461.196L278.273 461.196L282.244 452.566ZM260.967 443.948L264.139 434.994L264.139 434.994L260.967 443.948ZM254.376 441.721L251.482 450.77L251.482 450.77L254.376 441.721ZM251.286 439.679L242.318 436.546L242.318 436.546L251.286 439.679ZM266.517 396.077L257.549 392.944L257.549 392.944L266.517 396.077ZM281.064 334.056L279.669 324.659L279.669 324.659L281.064 334.056ZM408.511 527.145L411.081 536.291L411.081 536.291L408.511 527.145ZM409.775 526.706L413.514 535.44L413.514 535.44L409.775 526.706ZM410.078 526.567L414.363 535.046L414.339 535.059L414.314 535.071L410.078 526.567ZM410.114 526.55L414.452 535.001L414.425 535.015L414.398 535.028L410.114 526.55ZM410.144 526.534L405.673 518.152L405.696 518.139L405.72 518.127L410.144 526.534ZM410.151 526.53L414.8 534.815L414.689 534.877L414.576 534.937L410.151 526.53ZM410.155 526.528L405.506 518.243L405.509 518.242L410.155 526.528ZM411.291 526.637L405.149 533.885L405.149 533.885L411.291 526.637ZM411.583 527.743L420.506 531.005L420.506 531.005L411.583 527.743ZM511.61 541.791L510.583 532.347L510.584 532.347L511.61 541.791ZM512.694 542.679L522.156 541.826L522.156 541.826L512.694 542.679ZM403.461 529.668L403.053 539.159L403.053 539.159L403.461 529.668ZM383.914 520.739L390.042 513.479L390.042 513.479L383.914 520.739ZM363.629 481.819L372.756 479.184L372.759 479.192L363.629 481.819ZM363.624 481.799L354.496 484.434L354.494 484.426L363.624 481.799ZM362.66 478.466L353.54 481.124L353.54 481.124L362.66 478.466ZM337.346 437.025L331.989 444.871L331.989 444.871L337.346 437.025ZM295.565 412.647L291 420.978L291 420.978L295.565 412.647ZM275.508 401.807L271.036 410.188L271.036 410.188L275.508 401.807ZM269.295 398.505L273.734 390.106L273.736 390.107L269.295 398.505ZM254.985 439.816L252.092 448.865L252.091 448.865L254.985 439.816ZM261.635 442.063L258.462 451.018L258.462 451.018L261.635 442.063ZM283.08 450.749L287.051 442.119L287.051 442.119L283.08 450.749ZM327.979 483.331L335.824 477.974L335.824 477.974L327.979 483.331ZM339.938 517.813L349.302 516.213L349.302 516.213L339.938 517.813ZM340.549 521.345L331.195 523.004L331.195 523.004L340.549 521.345ZM356.768 554.824L350.372 561.849L350.372 561.849L356.768 554.824ZM395.436 587.446L402.446 593.858L402.445 593.858L395.436 587.446ZM396.912 588.796L389.903 582.383L389.903 582.383L396.912 588.796ZM396.849 587.383L390.437 594.392L390.436 594.392L396.849 587.383ZM207.48 571.144L216.449 574.277L216.449 574.277L207.48 571.144ZM206.207 571.758L209.339 562.79L209.34 562.79L206.207 571.758ZM205.592 570.485L196.624 567.352L196.624 567.352L205.592 570.485ZM434.384 388.364L443.159 392.003L443.159 392.003L434.384 388.364ZM434.924 389.671L438.563 380.895L438.563 380.896L434.924 389.671ZM435.69 387.824L432.052 396.599L432.052 396.599L435.69 387.824ZM456.995 396.657L453.878 405.631L453.614 405.54L453.357 405.433L456.995 396.657ZM499.082 397.23L503.224 405.78L503.224 405.78L499.082 397.23ZM499.954 399.03L504.096 407.58L504.096 407.58L499.954 399.03ZM482.695 407.391L478.553 398.841L478.553 398.841L482.695 407.391ZM481.931 407.435L485.048 398.461L485.048 398.461L481.931 407.435ZM435.472 449.174L444.195 452.937L444.195 452.938L435.472 449.174ZM434.158 449.696L430.395 458.419L430.395 458.419L434.158 449.696ZM433.636 448.382L442.359 452.145L442.359 452.145L433.636 448.382ZM454.917 399.059L446.195 395.295L454.917 399.059ZM454.382 397.739L458.021 388.963L454.382 397.739ZM244.151 466.169L235.183 463.036L244.151 466.169ZM245.41 465.554L248.485 456.566L245.41 465.554ZM375.908 613.28L381.87 605.884L375.908 613.28ZM375.812 611.859L382.821 618.272L375.812 611.859ZM267.817 398.422L258.849 395.289L267.817 398.422ZM458.067 399.147L454.95 408.121L454.95 408.121L458.067 399.147ZM456.821 399.695L448.098 395.932L456.821 399.695ZM400.195 530.512L391.38 526.97L400.195 530.512ZM399.443 529.122L397.357 538.391L397.357 538.391L399.443 529.122ZM371.038 564.774L364.077 558.31L371.038 564.774ZM369.712 564.926L364.276 572.718L369.712 564.926ZM390.097 554.354L388.426 545.002L390.097 554.354ZM390.864 553.735L382.049 550.193L390.864 553.735ZM399.979 553.661L408.902 556.923L399.979 553.661ZM407.064 529.491L408.453 538.889L407.064 529.491ZM408.294 530.916L399.372 527.654L408.294 530.916ZM512.826 566.407L522.288 565.553L512.826 566.407ZM514.817 566.227L505.356 567.08L514.817 566.227ZM403.513 527.617L394.698 524.076L403.513 527.617ZM434.818 453.097L440.569 445.535L434.818 453.097ZM433.285 453.52L442.1 457.061L433.285 453.52ZM374.336 610.509L381.345 616.922L374.336 610.509ZM372.913 610.539L379.75 603.944L372.913 610.539ZM585.106 569.582L586.084 579.032L585.106 569.582ZM585.608 567.792L579.857 575.353L579.857 575.353L585.608 567.792ZM371.634 613.463L378.643 619.876L371.634 613.463ZM371.602 612.061L378.404 605.429L371.602 612.061ZM394.562 553.853L394.117 544.363L394.562 553.853ZM393.538 552.446L384.722 548.904L393.538 552.446ZM268.974 395.111L277.942 398.244L268.974 395.111ZM269.451 396.326L265.014 404.726L269.451 396.326ZM430.297 584.577L420.847 585.55L430.297 584.577ZM431.413 585.499L432.392 594.948L431.413 585.499ZM253.86 438.375L262.829 441.508L253.86 438.375ZM254.508 439.664L257.376 430.608L257.376 430.608L254.508 439.664ZM242.307 462.452L245.064 453.36L242.307 462.452ZM243.551 461.823L252.519 464.956L243.551 461.823ZM253.778 441.531L256.638 432.472L253.778 441.531ZM252.54 442.154L243.572 439.021L252.54 442.154ZM510.887 544.906L501.425 545.759L510.887 544.906ZM509.783 544.002L508.756 534.557L509.783 544.002ZM288.425 333.362L279.457 330.23L288.425 333.362ZM399.487 553.971L398.582 563.428L399.487 553.971ZM371.434 613.681L364.425 607.269L371.434 613.681ZM242.23 465.602L251.199 468.735L242.23 465.602ZM241.583 464.323L238.838 473.417L241.583 464.323ZM402.648 552.186L411.57 555.448L402.648 552.186ZM403.695 553.524L404.722 562.968L403.695 553.524ZM374.509 614.721L368.508 622.085L374.509 614.721ZM373.109 614.813L380.119 621.226L373.109 614.813ZM246.099 463.676L249.177 454.688L246.099 463.676ZM481.805 405.274L484.922 396.3L481.805 405.274ZM482.569 405.229L478.427 396.68L482.569 405.229ZM402.434 530.304L411.249 533.845L402.434 530.304ZM403.441 529.667L403.024 539.158L403.441 529.667ZM410.685 557.027L414.709 548.422L410.685 557.027ZM410.984 554.743L409.957 545.298L410.984 554.743ZM368.517 567.822L360.862 562.196L368.517 567.822ZM368.288 566.371L373.736 558.589L368.288 566.371ZM431.387 587.512L430.409 578.063L431.387 587.512ZM430.478 588.525L420.979 588.421L430.478 588.525ZM400.641 527.328L402.407 517.994L400.641 527.328ZM401.716 526.727L392.901 523.185L401.716 526.727ZM262.949 308.664C259.79 315.801 262.507 321.989 267.967 324.341L260.451 341.791C243.818 334.626 238.816 316.247 245.574 300.975L262.949 308.664ZM297.156 291.991C275.739 292.936 266.024 301.714 262.949 308.664L245.574 300.975C252.434 285.473 270.106 274.166 296.319 273.01L297.156 291.991ZM288.29 283.874C288.496 288.564 292.466 292.198 297.156 291.991L296.319 273.01C302.112 272.754 307.015 277.243 307.271 283.037L288.29 283.874ZM296.407 275.008C291.717 275.215 288.083 279.184 288.289 283.874L307.271 283.037C307.526 288.83 303.037 293.734 297.244 293.989L296.407 275.008ZM247.403 301.784C253.863 287.187 270.692 276.142 296.407 275.008L297.244 293.989C276.339 294.911 267.457 303.418 264.778 309.473L247.403 301.784ZM261.242 339.954C245.805 333.305 241.014 316.222 247.403 301.784L264.778 309.473C262.01 315.728 264.45 320.648 268.758 322.504L261.242 339.954ZM282.165 341.474C276.729 342.281 268.211 342.956 261.242 339.954L268.758 322.504C270.463 323.238 274.305 323.433 279.375 322.68L282.165 341.474ZM289.631 339.993C287.754 340.457 285.134 341.034 282.165 341.474L279.375 322.68C281.601 322.35 283.612 321.91 285.069 321.549L289.631 339.993ZM291.89 339.397C291.343 339.552 290.574 339.76 289.631 339.993L285.069 321.549C285.791 321.371 286.36 321.216 286.732 321.111L291.89 339.397ZM292.541 339.209C292.383 339.256 292.164 339.32 291.89 339.397L286.732 321.111C286.917 321.059 287.052 321.019 287.131 320.996L292.541 339.209ZM292.629 339.183L292.555 339.205L287.118 321L287.192 320.978L292.629 339.183ZM292.717 339.156L292.658 339.174L287.163 320.986L287.223 320.968L292.717 339.156ZM292.778 339.138L292.745 339.148L287.195 320.977L287.227 320.967L292.778 339.138ZM292.807 339.129L292.799 339.131L287.206 320.973L287.214 320.971L292.807 339.129ZM292.804 339.13L292.802 339.131L287.218 320.969L287.22 320.969L292.804 339.13ZM284.194 336.909C286.424 339.218 289.764 340.074 292.83 339.122L287.194 320.977C290.981 319.801 295.107 320.858 297.861 323.71L284.194 336.909ZM282.284 328.201C281.225 331.232 281.964 334.6 284.194 336.909L297.862 323.711C300.616 326.563 301.529 330.724 300.221 334.467L282.284 328.201ZM260.005 391.978L282.284 328.201L300.221 334.467L277.942 398.244L260.005 391.978ZM265.788 405.135C265.506 404.985 265.247 404.849 265.014 404.726L273.888 387.925C274.124 388.05 274.386 388.188 274.672 388.34L265.788 405.135ZM271.977 408.424C269.377 407.036 267.257 405.912 265.788 405.135L274.672 388.34C276.158 389.126 278.299 390.261 280.922 391.661L271.977 408.424ZM291.961 419.224C284.297 415.025 277.18 411.2 271.977 408.424L280.922 391.661C286.167 394.459 293.348 398.319 301.091 402.561L291.961 419.224ZM333.117 443.219C324.672 437.453 307.445 427.707 291.961 419.224L301.091 402.561C316.385 410.941 334.473 421.139 343.831 427.528L333.117 443.219ZM355.46 480.564C350.942 465.064 346.254 452.189 333.117 443.219L343.831 427.528C363.005 440.62 369.137 459.592 373.701 475.247L355.46 480.564ZM356.385 483.763C356.076 482.689 355.77 481.627 355.46 480.565L373.701 475.247C374.02 476.342 374.334 477.432 374.642 478.502L356.385 483.763ZM356.395 483.796L356.387 483.77L374.64 478.495L374.648 478.522L356.395 483.796ZM379.077 526.47C364.999 514.589 360.424 497.779 356.393 483.789L374.65 478.528C378.977 493.543 382.372 504.389 391.332 511.951L379.077 526.47ZM398.874 536.663C392.991 535.549 386.28 532.549 379.077 526.47L391.332 511.951C396.398 516.227 400.179 517.572 402.407 517.994L398.874 536.663ZM441.222 453.881L410.531 530.269L392.901 523.185L423.592 446.798L441.222 453.881ZM428.189 457.478C432.656 460.875 439.13 459.088 441.222 453.881L423.592 446.798C426.176 440.366 434.174 438.158 439.692 442.355L428.189 457.478ZM585.091 576.822L428.189 457.478L439.692 442.355L596.594 561.699L585.091 576.822ZM589.362 561.601C581.698 562.395 578.959 572.157 585.091 576.821L596.594 561.699C604.168 567.461 600.785 579.52 591.319 580.5L589.362 561.601ZM430.409 578.063L589.361 561.601L591.319 580.5L432.366 596.961L430.409 578.063ZM397.276 612.902C410.492 612.315 420.837 601.484 420.979 588.421L439.978 588.628C439.727 611.719 421.467 630.845 398.12 631.883L397.276 612.902ZM380.511 607.357C385.072 611.074 390.939 613.184 397.276 612.902L398.12 631.883C386.946 632.38 376.543 628.634 368.508 622.085L380.511 607.357ZM365.342 609.23L366.1 608.401L380.119 621.226L379.36 622.055L365.342 609.23ZM371.235 606.476C368.983 606.576 366.863 607.567 365.342 609.23L379.36 622.055C377.48 624.11 374.861 625.334 372.079 625.457L371.235 606.476ZM354.099 607.238L371.235 606.476L372.079 625.457L354.943 626.219L354.099 607.238ZM362.969 615.352C362.76 610.662 358.789 607.029 354.099 607.238L354.943 626.219C349.15 626.477 344.245 621.989 343.987 616.196L362.969 615.352ZM354.854 624.221C359.544 624.013 363.177 620.042 362.969 615.352L343.987 616.196C343.73 610.403 348.217 605.497 354.011 605.24L354.854 624.221ZM371.163 623.496L354.854 624.221L354.011 605.24L370.319 604.515L371.163 623.496ZM378.643 619.876L378.444 620.094L364.425 607.269L364.625 607.051L378.643 619.876ZM371.393 589.223C371.675 595.56 374.297 601.216 378.404 605.429L364.799 618.692C357.563 611.27 352.908 601.241 352.412 590.067L371.393 589.223ZM376.172 573.448C372.935 577.852 371.131 583.331 371.393 589.223L352.412 590.067C351.95 579.688 355.15 569.968 360.862 562.196L376.172 573.448ZM361.816 549.278C365.126 552.291 369.319 555.497 373.736 558.589L362.839 574.154C358.086 570.826 353.17 567.1 349.026 563.328L361.816 549.278ZM347.934 520.035C349.988 531.617 352.402 540.707 361.816 549.278L349.026 563.328C334.799 550.376 331.467 535.993 329.226 523.354L347.934 520.035ZM347.333 516.567C347.535 517.749 347.731 518.896 347.934 520.035L329.226 523.354C329.012 522.149 328.806 520.946 328.605 519.773L347.333 516.567ZM347.334 516.574L347.335 516.582L328.603 519.759L328.601 519.752L347.334 516.574ZM347.458 517.741L347.458 517.741L328.477 518.585L328.477 518.585L347.458 517.741ZM334.173 479.102C343.304 492.474 345.46 505.626 347.331 516.56L328.604 519.766C326.711 508.71 325.02 499.391 318.482 489.816L334.173 479.102ZM286.215 443.936C302.715 451.527 323.381 463.297 334.173 479.102L318.482 489.816C310.863 478.658 294.523 468.673 278.273 461.196L286.215 443.936ZM264.139 434.994C269.872 437.025 277.73 440.031 286.215 443.936L278.273 461.196C270.44 457.592 263.14 454.797 257.795 452.903L264.139 434.994ZM257.27 432.673C258.917 433.199 261.268 433.976 264.139 434.994L257.795 452.903C255.128 451.958 252.964 451.244 251.482 450.77L257.27 432.673ZM256.638 432.472C256.836 432.534 257.046 432.601 257.27 432.673L251.482 450.77C251.281 450.705 251.093 450.646 250.918 450.59L256.638 432.472ZM236.502 459.259L243.572 439.021L261.509 445.287L254.439 465.525L236.502 459.259ZM312.899 566.02C310.954 522.271 282.116 486.054 243.021 472.663L249.177 454.688C295.413 470.525 329.576 513.363 331.88 565.176L312.899 566.02ZM214.098 674.015C271.203 671.476 315.438 623.125 312.899 566.02L331.88 565.176C334.885 632.764 282.53 689.991 214.942 692.996L214.098 674.015ZM106.103 575.214C108.642 632.319 156.993 676.554 214.098 674.015L214.942 692.996C147.354 696.001 90.1268 643.646 87.1218 576.058L106.103 575.214ZM204.904 467.219C147.799 469.758 103.564 518.109 106.103 575.214L87.1218 576.058C84.1168 508.47 136.472 451.243 204.06 448.238L204.904 467.219ZM239.55 471.543C228.636 468.233 216.975 466.682 204.904 467.219L204.06 448.238C218.311 447.604 232.12 449.435 245.064 453.36L239.55 471.543ZM260.255 442.812L252.519 464.956L234.582 458.69L242.318 436.546L260.255 442.812ZM275.486 399.21L260.255 442.812L242.318 436.546L257.549 392.944L275.486 399.21ZM297.394 336.495L275.486 399.21L257.549 392.944L279.457 330.23L297.394 336.495ZM279.669 324.659C281.973 324.317 284.048 323.862 285.549 323.491L290.111 341.935C288.19 342.41 285.506 343 282.459 343.453L279.669 324.659ZM267.967 324.341C270.228 325.315 274.565 325.416 279.669 324.659L282.459 343.453C276.979 344.266 267.972 345.03 260.451 341.791L267.967 324.341ZM420.847 585.55C419.933 576.671 414.363 569.235 406.66 565.633L414.709 548.422C428.249 554.754 438.126 567.856 439.747 583.604L420.847 585.55ZM586.084 579.032L432.392 594.948L430.434 576.049L584.127 560.133L586.084 579.032ZM440.569 445.535L591.359 560.23L579.857 575.353L429.067 460.658L440.569 445.535ZM394.698 524.076L424.47 449.978L442.1 457.061L412.328 531.159L394.698 524.076ZM411.081 536.291C409.092 536.85 406.406 537.301 403.139 537.161L403.955 518.178C405.008 518.224 405.681 518.073 405.941 517.999L411.081 536.291ZM413.514 535.44C412.887 535.708 412.072 536.012 411.081 536.291L405.941 517.999C406.076 517.962 406.11 517.942 406.037 517.973L413.514 535.44ZM414.314 535.071C414.095 535.18 413.827 535.306 413.514 535.44L406.037 517.973C406 517.989 405.936 518.018 405.842 518.064L414.314 535.071ZM414.398 535.028L414.363 535.046L405.794 518.088L405.829 518.071L414.398 535.028ZM414.615 534.916C414.56 534.945 414.505 534.974 414.452 535.001L405.775 518.098C405.749 518.112 405.715 518.129 405.673 518.152L414.615 534.916ZM414.576 534.937L414.569 534.94L405.72 518.127L405.727 518.123L414.576 534.937ZM414.804 534.813L414.8 534.815L405.503 518.245L405.506 518.243L414.804 534.813ZM405.149 533.885C407.858 536.18 411.707 536.549 414.802 534.814L405.509 518.242C409.332 516.098 414.086 516.554 417.433 519.39L405.149 533.885ZM402.661 524.482C401.438 527.827 402.431 531.581 405.149 533.885L417.432 519.389C420.79 522.235 422.017 526.872 420.506 531.005L402.661 524.482ZM393.725 548.924L402.661 524.482L420.506 531.005L411.57 555.448L393.725 548.924ZM512.637 551.236L404.722 562.968L402.668 544.079L510.583 532.347L512.637 551.236ZM503.232 543.533C503.66 548.276 507.902 551.75 512.636 551.236L510.584 532.347C516.416 531.713 521.629 535.982 522.156 541.826L503.232 543.533ZM505.356 567.08L503.232 543.533L522.156 541.826L524.279 565.374L505.356 567.08ZM520.349 544.053L522.288 565.553L503.364 567.26L501.425 545.759L520.349 544.053ZM409.957 545.298L508.756 534.557L510.81 553.446L412.011 564.187L409.957 545.298ZM398.582 563.428C397.436 563.318 396.265 563.287 395.072 563.34L394.228 544.358C396.309 544.266 398.367 544.321 400.392 544.514L398.582 563.428ZM395.072 563.34C395.051 563.341 395.03 563.342 395.008 563.343L394.117 544.363C394.154 544.362 394.191 544.36 394.228 544.358L395.072 563.34ZM384.722 548.904L393.619 526.762L411.249 533.845L402.353 555.988L384.722 548.904ZM403.859 520.176C403.862 520.176 403.866 520.176 403.869 520.177L403.053 539.159C403.043 539.159 403.034 539.158 403.024 539.158L403.859 520.176ZM403.869 520.177C404.611 520.208 405.215 520.161 405.675 520.093L408.453 538.889C406.862 539.124 405.053 539.245 403.053 539.159L403.869 520.177ZM417.217 534.178L408.902 556.923L391.057 550.399L399.372 527.654L417.217 534.178ZM391.768 563.706C386.361 564.672 381.581 567.382 377.999 571.239L364.077 558.31C370.372 551.531 378.826 546.717 388.426 545.002L391.768 563.706ZM409.01 534.054L399.679 557.277L382.049 550.193L391.38 526.97L409.01 534.054ZM390.042 513.479C395.023 517.683 398.934 519.27 401.53 519.854L397.357 538.391C391.387 537.047 384.769 533.892 377.787 527.999L390.042 513.479ZM372.759 479.192C377.033 494.052 380.59 505.502 390.042 513.479L377.787 527.999C363.232 515.715 358.499 498.35 354.499 484.445L372.759 479.192ZM372.751 479.164L372.756 479.184L354.502 484.453L354.496 484.434L372.751 479.164ZM371.781 475.807C372.11 476.936 372.434 478.064 372.753 479.173L354.494 484.426C354.173 483.311 353.858 482.215 353.54 481.124L371.781 475.807ZM342.703 429.18C361.243 441.838 367.223 460.17 371.781 475.807L353.54 481.124C349.026 465.638 344.49 453.406 331.989 444.871L342.703 429.18ZM300.13 404.315C315.443 412.705 333.441 422.856 342.703 429.18L331.989 444.871C323.64 439.17 306.504 429.473 291 420.978L300.13 404.315ZM279.98 393.425C285.221 396.221 292.395 400.078 300.13 404.315L291 420.978C283.344 416.783 276.234 412.962 271.036 410.188L279.98 393.425ZM273.736 390.107C275.221 390.893 277.36 392.027 279.981 393.425L271.036 410.188C268.438 408.802 266.32 407.679 264.853 406.903L273.736 390.107ZM273.014 389.725L273.734 390.106L264.855 406.904L264.134 406.523L273.014 389.725ZM244.892 435.243L258.849 395.289L276.786 401.554L262.829 441.508L244.892 435.243ZM252.091 448.865C251.933 448.814 251.783 448.766 251.64 448.721L257.376 430.608C257.536 430.658 257.704 430.712 257.879 430.768L252.091 448.865ZM258.462 451.018C255.774 450.065 253.59 449.344 252.092 448.865L257.879 430.768C259.543 431.3 261.914 432.084 264.807 433.109L258.462 451.018ZM279.109 459.379C271.207 455.744 263.849 452.926 258.462 451.018L264.807 433.109C270.581 435.154 278.497 438.183 287.051 442.119L279.109 459.379ZM320.134 488.688C312.18 477.041 295.384 466.867 279.109 459.379L287.051 442.119C303.578 449.723 324.699 461.681 335.824 477.974L320.134 488.688ZM330.573 519.413C328.69 508.389 326.932 498.644 320.134 488.688L335.824 477.974C345.212 491.721 347.435 505.286 349.302 516.213L330.573 519.413ZM331.195 523.004C330.981 521.801 330.775 520.593 330.573 519.413L349.302 516.213C349.505 517.404 349.702 518.552 349.903 519.686L331.195 523.004ZM350.372 561.849C336.652 549.358 333.417 535.532 331.195 523.004L349.903 519.686C351.937 531.157 354.256 539.69 363.163 547.799L350.372 561.849ZM364.276 572.718C359.482 569.373 354.522 565.627 350.372 561.849L363.163 547.799C366.463 550.803 370.685 554.022 375.147 557.135L364.276 572.718ZM367.327 604.097L388.427 581.033L402.445 593.858L381.345 616.922L367.327 604.097ZM373.391 589.134C373.648 594.917 376.024 600.081 379.75 603.944L366.075 617.135C359.258 610.067 354.88 600.56 354.41 589.978L373.391 589.134ZM395.161 565.338C382.578 565.897 372.831 576.551 373.391 589.134L354.41 589.978C353.384 566.912 371.251 547.382 394.317 546.356L395.161 565.338ZM418.957 587.108C418.398 574.525 407.744 564.778 395.161 565.338L394.317 546.356C417.383 545.331 436.913 563.198 437.939 586.264L418.957 587.108ZM397.187 610.904C409.77 610.345 419.517 599.691 418.957 587.108L437.939 586.264C438.964 609.33 421.097 628.86 398.031 629.885L397.187 610.904ZM381.87 605.884C386.05 609.253 391.404 611.161 397.187 610.904L398.031 629.885C387.449 630.356 377.59 626.838 369.946 620.676L381.87 605.884ZM403.921 595.208L382.821 618.272L368.803 605.447L389.903 582.383L403.921 595.208ZM403.261 580.374C407.54 584.288 407.835 590.93 403.921 595.209L389.903 582.383C386.734 585.847 386.973 591.224 390.437 594.392L403.261 580.374ZM388.427 581.034C392.341 576.755 398.983 576.459 403.262 580.374L390.436 594.392C393.9 597.561 399.277 597.322 402.446 593.858L388.427 581.034ZM198.512 568.011L235.183 463.036L253.12 469.302L216.449 574.277L198.512 568.011ZM209.34 562.79C204.908 561.241 200.06 563.58 198.512 568.011L216.449 574.277C214.536 579.751 208.548 582.64 203.073 580.727L209.34 562.79ZM214.561 573.617C216.109 569.186 213.772 564.338 209.339 562.79L203.074 580.727C197.599 578.815 194.712 572.826 196.624 567.352L214.561 573.617ZM251.199 468.735L214.561 573.617L196.624 567.352L233.262 462.469L251.199 468.735ZM204.149 450.236C218.109 449.615 231.64 451.398 244.328 455.228L238.838 473.417C228.173 470.199 216.783 468.693 204.993 469.217L204.149 450.236ZM89.1198 575.969C86.1639 509.484 137.664 453.192 204.149 450.236L204.993 469.217C148.991 471.707 105.611 519.123 108.101 575.125L89.1198 575.969ZM214.853 690.998C148.368 693.954 92.0758 642.454 89.1198 575.969L108.101 575.125C110.591 631.127 158.008 674.506 214.009 672.017L214.853 690.998ZM329.882 565.265C332.838 631.749 281.338 688.042 214.853 690.998L214.009 672.017C270.011 669.527 313.391 622.11 310.901 566.108L329.882 565.265ZM248.485 456.566C293.988 472.132 327.615 514.281 329.882 565.265L310.901 566.108C308.993 523.192 280.695 487.665 242.335 474.543L248.485 456.566ZM443.159 392.003C444.957 387.667 442.9 382.693 438.563 380.895L431.286 398.447C425.929 396.226 423.387 390.082 425.608 384.726L443.159 392.003ZM432.052 396.599C436.388 398.397 441.361 396.339 443.159 392.003L425.608 384.726C427.829 379.369 433.972 376.827 439.329 379.048L432.052 396.599ZM453.357 405.433L432.052 396.599L439.329 379.048L460.634 387.882L453.357 405.433ZM478.688 414.248L453.878 405.631L460.112 387.683L484.922 396.3L478.688 414.248ZM503.224 405.78L486.71 413.779L478.427 396.68L494.941 388.68L503.224 405.78ZM491.868 401.836C493.915 406.06 498.999 407.826 503.224 405.78L494.941 388.68C500.16 386.152 506.44 388.334 508.968 393.552L491.868 401.836ZM495.812 390.48C491.588 392.527 489.822 397.611 491.868 401.836L508.968 393.552C511.496 398.771 509.315 405.052 504.096 407.58L495.812 390.48ZM478.553 398.841L495.812 390.48L504.096 407.58L486.837 415.94L478.553 398.841ZM485.048 398.461C482.918 397.721 480.582 397.858 478.553 398.841L486.837 415.94C484.33 417.154 481.444 417.323 478.814 416.409L485.048 398.461ZM461.184 390.173L485.048 398.461L478.814 416.409L454.95 408.121L461.184 390.173ZM426.75 445.41L448.098 395.932L465.544 403.459L444.195 452.937L426.75 445.41ZM437.922 440.973C433.611 439.113 428.61 441.1 426.75 445.41L444.195 452.938C441.898 458.262 435.719 460.716 430.395 458.419L437.922 440.973ZM442.359 452.145C444.219 447.835 442.232 442.833 437.922 440.973L430.395 458.419C425.07 456.121 422.616 449.942 424.913 444.618L442.359 452.145ZM463.64 402.822L442.359 452.145L424.913 444.618L446.195 395.295L463.64 402.822ZM438.563 380.896L458.021 388.963L450.744 406.514L431.286 398.447L438.563 380.896ZM446.195 395.295C444.316 399.649 446.363 404.698 450.744 406.514L458.021 388.963C463.432 391.207 465.961 397.444 463.64 402.822L446.195 395.295ZM235.183 463.036C237.072 457.626 242.99 454.686 248.485 456.566L242.335 474.543C246.797 476.069 251.59 473.68 253.12 469.302L235.183 463.036ZM369.946 620.676C365.084 616.757 364.86 609.757 368.803 605.447L382.821 618.272C386.002 614.795 385.854 609.095 381.87 605.884L369.946 620.676ZM264.139 406.525C268.988 409.085 274.977 406.731 276.786 401.554L258.849 395.289C260.873 389.493 267.58 386.857 273.009 389.723L264.139 406.525ZM454.95 408.121C459.158 409.582 463.779 407.548 465.544 403.459L448.098 395.932C450.278 390.88 455.987 388.367 461.184 390.173L454.95 408.121ZM391.38 526.97C389.315 532.109 392.586 537.317 397.357 538.391L401.53 519.854C407.543 521.208 411.55 527.733 409.01 534.054L391.38 526.97ZM377.999 571.239C374.552 574.951 368.722 575.819 364.276 572.718L375.147 557.135C371.533 554.614 366.834 555.341 364.077 558.31L377.999 571.239ZM388.426 545.002C385.636 545.5 383.173 547.397 382.049 550.193L399.679 557.277C398.295 560.723 395.248 563.084 391.768 563.706L388.426 545.002ZM408.902 556.923C407.598 560.488 404.385 563.005 400.611 563.415L398.557 544.526C395.143 544.897 392.236 547.174 391.057 550.399L408.902 556.923ZM405.675 520.093C412.693 519.056 420.278 525.804 417.217 534.178L399.372 527.654C398.158 530.974 399.22 534.174 400.945 536.139C402.624 538.053 405.368 539.345 408.453 538.889L405.675 520.093ZM514.956 576.755C509.117 577.39 503.892 573.11 503.364 567.26L522.288 565.553C521.86 560.817 517.631 557.352 512.903 557.866L514.956 576.755ZM524.279 565.374C524.793 571.074 520.647 576.137 514.956 576.755L512.903 557.866C508.296 558.367 504.94 562.465 505.356 567.08L524.279 565.374ZM412.328 531.159C414.76 525.108 410.484 518.469 403.97 518.179L403.124 537.16C396.557 536.868 392.247 530.175 394.698 524.076L412.328 531.159ZM429.067 460.658C433.533 464.055 440.008 462.269 442.1 457.061L424.47 449.978C427.054 443.546 435.052 441.339 440.569 445.535L429.067 460.658ZM381.345 616.922C377.403 621.232 370.41 621.63 366.075 617.135L379.75 603.944C376.198 600.262 370.508 600.62 367.327 604.097L381.345 616.922ZM584.127 560.133C576.464 560.926 573.725 570.689 579.857 575.353L591.359 560.23C598.934 565.992 595.551 578.051 586.084 579.032L584.127 560.133ZM364.625 607.051C361.476 610.492 361.781 615.596 364.799 618.692L378.404 605.429C382.178 609.3 382.522 615.636 378.643 619.876L364.625 607.051ZM395.008 563.343C387.707 563.686 381.731 556.348 384.722 548.904L402.353 555.988C404.785 549.933 399.922 544.091 394.117 544.363L395.008 563.343ZM277.942 398.244C279.33 394.272 277.602 389.887 273.888 387.925L265.014 404.726C260.425 402.302 258.291 396.884 260.005 391.978L277.942 398.244ZM439.747 583.604C439.288 579.141 435.289 575.547 430.434 576.049L432.392 594.948C426.415 595.567 421.422 591.136 420.847 585.55L439.747 583.604ZM262.829 441.508C264.422 436.948 261.902 432.041 257.376 430.608L251.64 448.721C246.033 446.946 242.925 440.873 244.892 435.243L262.829 441.508ZM245.064 453.36C240.756 452.054 236.101 454.343 234.582 458.69L252.519 464.956C250.645 470.322 244.891 473.162 239.55 471.543L245.064 453.36ZM250.918 450.59C255.339 451.986 260.006 449.589 261.509 445.287L243.572 439.021C245.429 433.703 251.191 430.752 256.638 432.472L250.918 450.59ZM501.425 545.759C501.852 550.495 506.082 553.96 510.81 553.446L508.756 534.557C514.596 533.922 519.821 538.202 520.349 544.053L501.425 545.759ZM279.457 330.23C277.063 337.084 283.278 343.625 290.111 341.935L285.549 323.491C293.153 321.61 300.05 328.891 297.394 336.495L279.457 330.23ZM400.392 544.514C399.788 544.457 399.173 544.459 398.557 544.526L400.611 563.415C399.93 563.489 399.25 563.492 398.582 563.428L400.392 544.514ZM370.319 604.515C368.067 604.615 365.947 605.606 364.425 607.269L378.444 620.094C376.564 622.149 373.945 623.372 371.163 623.496L370.319 604.515ZM233.262 462.469C231.685 466.983 234.146 472.001 238.838 473.417L244.328 455.228C250.103 456.971 253.149 463.154 251.199 468.735L233.262 462.469ZM411.57 555.448C413.734 549.53 408.932 543.398 402.668 544.079L404.722 562.968C396.984 563.809 391.053 556.234 393.725 548.924L411.57 555.448ZM368.508 622.085C371.859 624.817 376.97 624.667 380.119 621.226L366.1 608.401C369.979 604.161 376.321 603.941 380.511 607.357L368.508 622.085ZM254.439 465.525C256.017 461.008 253.565 456.191 249.177 454.688L243.021 472.663C237.577 470.798 234.556 464.83 236.502 459.259L254.439 465.525ZM484.922 396.3C482.792 395.56 480.456 395.697 478.427 396.68L486.71 413.779C484.204 414.993 481.318 415.162 478.688 414.248L484.922 396.3ZM393.619 526.762C395.356 522.438 399.588 519.988 403.859 520.176L403.024 539.158C406.421 539.307 409.838 537.358 411.249 533.845L393.619 526.762ZM406.66 565.633C401.383 563.165 400.216 557.878 400.633 554.57C401.053 551.229 403.68 545.981 409.957 545.298L412.011 564.187C417.205 563.622 419.189 559.286 419.484 556.942C419.775 554.631 419 550.429 414.709 548.422L406.66 565.633ZM360.862 562.196C358.14 565.9 358.812 571.334 362.839 574.154L373.736 558.589C378.706 562.068 379.575 568.817 376.172 573.448L360.862 562.196ZM432.366 596.961C436.834 596.499 439.933 592.753 439.978 588.628L420.979 588.421C421.035 583.26 424.909 578.632 430.409 578.063L432.366 596.961ZM402.407 517.994C398.198 517.197 394.339 519.605 392.901 523.185L410.531 530.269C408.746 534.71 403.995 537.632 398.874 536.663L402.407 517.994Z" fill="#4ABEEA"/>
<g clip-path="url(#clip0_1_2)">
<path d="M836.386 669.899C816.205 650.792 789.062 638.975 759.132 638.974C728.939 638.974 701.597 650.913 681.399 670.196L758.727 747.53L836.386 669.899Z" fill="#4EBE4B"/>
<path d="M759.337 472.875C734.999 472.874 712.513 464.87 694.32 451.436L758.754 387L823.753 452.003C805.652 465.106 783.42 472.875 759.337 472.875Z" fill="#FFF200"/>
<path d="M751.467 499.609C752.602 506.627 747.854 513.166 740.882 514.265C733.911 515.378 727.356 510.623 726.258 503.693C725.123 496.7 729.87 490.141 736.842 489.045C743.805 487.903 750.368 492.662 751.467 499.609Z" fill="#4ABEEA"/>
<path d="M751.468 553.444C752.621 560.423 747.855 566.983 740.884 568.071C733.912 569.228 727.376 564.461 726.259 557.514C725.124 550.517 729.872 543.957 736.825 542.858C743.806 541.72 750.37 546.472 751.468 553.444Z" fill="#4ABEEA"/>
<path d="M793.028 599.009C794.127 605.968 789.415 612.527 782.407 613.655C775.426 614.743 768.899 610.02 767.782 603.058C766.648 596.065 771.395 589.53 778.367 588.414C785.339 587.272 791.875 592.034 793.028 599.009Z" fill="#4ABEEA"/>
<path d="M805.79 527.895C806.907 534.831 802.177 541.392 795.187 542.519C788.225 543.657 781.679 538.902 780.544 531.923C779.409 524.954 784.184 518.394 791.129 517.277C798.119 516.153 804.655 520.912 805.79 527.895Z" fill="#4ABEEA"/>
<path d="M874.966 631.573L851.608 608.232L875.791 584.047L827.405 584.046L810.657 567.279L826.933 550.992L876.235 550.993L851.588 526.31L874.972 502.967L939 566.998L874.966 631.573Z" fill="#4ABEEA"/>
</g>
<path d="M601.625 533.323C604.61 528.154 611.326 526.309 615.731 530.336C622.481 536.506 627.457 544.465 630.015 553.39C633.573 565.807 632.17 579.12 626.102 590.523C620.034 601.926 609.775 610.527 597.488 614.512C588.657 617.376 579.276 617.695 570.388 615.543C564.587 614.139 562.365 607.538 564.985 602.175V602.175C567.606 596.812 574.148 594.831 580.102 595.257C583.692 595.514 587.332 595.084 590.82 593.953C597.777 591.696 603.586 586.826 607.022 580.37C610.458 573.913 611.252 566.374 609.237 559.343C608.227 555.819 606.551 552.56 604.332 549.725C600.653 545.025 598.641 538.492 601.625 533.323V533.323Z" fill="#4ABEEA"/>
<path d="M629.891 505.895C633.638 501.099 640.621 500.204 644.918 504.515C651.208 510.825 656.529 518.058 660.69 525.983C666.563 537.169 669.988 549.477 670.737 562.088C671.486 574.7 669.543 587.327 665.036 599.129C660.529 610.932 653.562 621.64 644.597 630.542C635.632 639.445 624.876 646.337 613.042 650.762C601.208 655.186 588.568 657.042 575.962 656.204C563.356 655.367 551.072 651.856 539.928 645.906C532.032 641.69 524.836 636.318 518.57 629.984C514.29 625.658 515.233 618.681 520.055 614.967V614.967C524.877 611.254 531.743 612.234 536.196 616.383C540.432 620.33 545.174 623.722 550.309 626.464C558.695 630.941 567.937 633.583 577.423 634.213C586.908 634.843 596.419 633.447 605.323 630.117C614.228 626.788 622.321 621.602 629.067 614.903C635.812 608.205 641.055 600.148 644.446 591.267C647.837 582.386 649.299 572.885 648.736 563.395C648.172 553.906 645.595 544.645 641.176 536.228C638.47 531.074 635.112 526.309 631.194 522.045C627.077 517.563 626.144 510.691 629.891 505.895V505.895Z" fill="#4ABEEA"/>
<path d="M664.854 484.504L657.065 492.295C677.809 513.04 688.131 540.105 688.141 567.272C688.133 594.454 677.794 621.539 657.069 642.28C636.336 663.007 609.257 673.332 582.077 673.343C554.916 673.331 527.846 663.015 507.102 642.276C486.367 621.542 476.054 594.484 476.035 567.32C476.053 540.135 486.383 513.05 507.116 492.301C527.85 471.574 554.929 461.245 582.108 461.235C609.269 461.246 636.331 471.56 657.065 492.295L664.854 484.504L672.643 476.716C647.669 451.719 614.834 439.189 582.108 439.199C549.364 439.187 516.52 451.737 491.538 476.722C466.538 501.711 453.993 534.567 454.003 567.319C453.995 600.047 466.523 632.882 491.525 657.857C516.508 682.856 549.352 695.388 582.078 695.379C614.822 695.39 647.666 682.845 672.647 657.862C697.638 632.873 710.183 600.026 710.173 567.272C710.19 534.542 697.653 501.7 672.643 476.713L673.051 477.121L672.643 476.716L664.854 484.504Z" fill="#4ABEEA"/>
<path d="M594.995 565.463C596.131 572.511 591.362 579.075 584.353 580.183C577.352 581.31 570.775 576.522 569.655 569.568C568.518 562.546 573.304 555.956 580.296 554.857C587.297 553.717 593.875 558.486 594.995 565.463Z" fill="#4ABEEA"/>
<defs>
<clipPath id="clip0_1_2">
<rect width="360.53" height="360.53" fill="white" transform="translate(578.471 387)"/>
</clipPath>
</defs>
</svg>
