<svg width="1024" height="1024" viewBox="0 0 1024 1024" fill="none" xmlns="http://www.w3.org/2000/svg">
<g clip-path="url(#clip0_1_2)">
<rect width="1024" height="1024" fill="white"/>
<path fill-rule="evenodd" clip-rule="evenodd" d="M515.349 322.619C526.727 317.107 530.21 304.027 524.476 292.483C518.731 280.919 503.866 270.991 478.753 271C478.201 271 477.753 271.448 477.753 272C477.754 272.553 478.201 273 478.754 273C503.36 272.991 517.378 282.69 522.685 293.372C528.002 304.076 524.705 315.864 514.477 320.819C509.983 322.997 503.45 323.031 497.882 322.456C495.127 322.172 492.663 321.744 490.887 321.388C490 321.21 489.286 321.05 488.796 320.935C488.551 320.878 488.362 320.831 488.235 320.8L488.186 320.787L488.092 320.764L488.057 320.755L488.049 320.752L488.047 320.752C487.682 320.656 487.294 320.774 487.044 321.057C486.794 321.34 486.725 321.74 486.865 322.091L513.345 388.29C513.528 388.75 513.349 389.274 512.922 389.525C512.66 389.678 512.365 389.851 512.041 390.042C510.521 390.934 508.331 392.223 505.646 393.813C500.276 396.992 492.928 401.373 485.014 406.178C469.204 415.777 451.08 427.103 441.994 433.917C425.515 446.276 420.568 463.28 416.515 479.895C416.232 481.056 415.954 482.213 415.676 483.367C411.955 498.831 408.403 513.593 396.716 524.381C390.478 530.14 385.036 532.677 380.787 533.672C380.335 533.778 379.878 533.54 379.686 533.118L343.722 453.966C343.449 453.365 342.678 453.189 342.171 453.611L303.276 486.022C302.86 486.368 302.244 486.32 301.883 485.917C278.709 460.03 245.036 443.74 207.558 443.74C137.662 443.74 81 500.401 81 570.297C81 640.193 137.662 696.855 207.558 696.855C267.907 696.855 318.391 654.614 331.055 598.086C331.163 597.605 331.603 597.269 332.095 597.298L351.296 598.427C351.814 598.458 352.221 598.881 352.249 599.399C353.278 618.447 369.05 633.576 388.355 633.576C397.63 633.576 406.09 630.084 412.491 624.342C412.894 623.98 413.512 623.988 413.895 624.371L414.767 625.244C414.955 625.431 415.209 625.536 415.474 625.536H433.554C434.106 625.536 434.554 625.089 434.554 624.536C434.554 623.984 434.106 623.536 433.554 623.536H416.303C416.038 623.536 415.783 623.431 415.596 623.244L415.309 622.957C414.926 622.574 414.918 621.956 415.28 621.553C421.022 615.152 424.514 606.693 424.514 597.417C424.514 588.794 421.496 580.876 416.458 574.662C416.096 574.215 416.165 573.553 416.621 573.202C421.314 569.598 425.964 565.724 429.74 561.966C441.67 550.095 444.144 537.617 445.838 524.767C446.002 523.528 446.158 522.286 446.314 521.041L446.316 521.031L446.316 521.024L446.317 521.02C447.784 509.355 449.285 497.422 457.004 484.963C466.075 470.323 485.061 457.997 501.951 449.297C510.369 444.961 518.215 441.551 523.957 439.224C526.827 438.062 529.17 437.17 530.794 436.57C531.053 436.475 531.293 436.387 531.514 436.306C532.019 436.122 532.578 436.374 532.778 436.873L586.303 570.686C586.508 571.199 587.09 571.449 587.603 571.244C588.116 571.038 588.365 570.456 588.16 569.944L533.921 434.346L515.841 389.147L489.836 324.133C489.665 323.705 490.042 323.258 490.494 323.349V323.349C492.314 323.714 494.843 324.153 497.676 324.445C503.284 325.025 510.312 325.059 515.349 322.619ZM371.626 562.882C372.718 562.952 372.99 564.657 372.015 565.151C360.807 570.838 352.961 582.193 352.248 595.443C352.218 596.008 351.74 596.45 351.175 596.417L332.8 595.336C332.194 595.3 331.76 594.737 331.873 594.14C333.345 586.419 334.116 578.448 334.116 570.297C334.116 567.377 334.017 564.479 333.822 561.608C333.781 561.002 334.281 560.494 334.888 560.533L371.626 562.882ZM383.276 561.611C383.236 561.617 383.196 561.619 383.156 561.616V561.616C382.935 561.602 382.74 561.463 382.655 561.258L372.04 535.79C372.039 535.789 372.04 535.787 372.042 535.788V535.788C373.43 536.112 375.431 536.373 377.941 536.154C377.991 536.149 378.041 536.145 378.091 536.14C378.528 536.099 378.949 536.331 379.13 536.73L389.617 559.81C389.927 560.493 389.402 561.265 388.652 561.259C388.553 561.258 388.454 561.258 388.355 561.258C386.631 561.258 384.935 561.378 383.276 561.611ZM379.949 559.965C380.234 560.649 379.702 561.395 378.962 561.348L334.421 558.5C333.93 558.468 333.535 558.083 333.486 557.593C330.893 531.579 320.422 507.883 304.494 488.927C304.135 488.501 304.189 487.864 304.617 487.507L341.436 456.827C341.943 456.405 342.713 456.581 342.986 457.182L377.876 533.971C377.915 534.056 377.859 534.153 377.766 534.161V534.161C375.489 534.361 373.701 534.121 372.497 533.84C371.894 533.699 371.438 533.548 371.139 533.435C371.06 533.406 370.992 533.379 370.935 533.355C370.884 533.334 370.843 533.316 370.81 533.302L370.779 533.288L370.755 533.277L370.738 533.269L370.729 533.264L370.728 533.264L370.727 533.263L370.726 533.263C370.353 533.075 369.902 533.138 369.595 533.422C369.288 533.707 369.191 534.154 369.352 534.54L379.949 559.965ZM330.376 558.241C330.99 558.28 331.494 557.759 331.43 557.147C328.769 531.787 318.498 508.692 302.942 490.189C302.589 489.77 301.965 489.717 301.544 490.068L187.547 585.058C186.85 585.639 187.223 586.772 188.128 586.825L328.77 595.099C329.267 595.128 329.71 594.787 329.806 594.298C331.322 586.532 332.116 578.507 332.116 570.297C332.116 567.236 332.005 564.201 331.788 561.195C331.752 560.699 331.354 560.307 330.858 560.275L266.502 556.16C265.944 556.124 265.465 556.554 265.44 557.113L264.395 580.061C264.369 580.62 263.89 581.049 263.332 581.014V581.014C262.788 580.979 262.372 580.515 262.397 579.97L263.535 554.968C263.561 554.417 264.028 553.998 264.579 554.033L330.376 558.241ZM415.134 571.822C414.731 572.13 414.162 572.085 413.802 571.728C408.337 566.314 401.154 562.632 393.143 561.572C392.796 561.526 392.494 561.307 392.349 560.988L381.373 536.833C381.11 536.253 381.448 535.578 382.063 535.413C386.532 534.21 391.983 531.472 398.073 525.851C410.226 514.633 413.912 499.284 417.596 483.942C417.882 482.751 418.168 481.559 418.458 480.369C422.507 463.77 427.331 447.415 443.194 435.517C452.187 428.772 470.223 417.498 486.052 407.888C493.958 403.088 501.3 398.711 506.665 395.534C509.348 393.946 511.536 392.657 513.053 391.766C513.422 391.55 513.751 391.357 514.038 391.189V391.189C514.236 391.072 514.493 391.16 514.578 391.374L531.291 433.157C531.502 433.683 531.233 434.279 530.701 434.474C530.513 434.542 530.313 434.616 530.101 434.694C528.46 435.301 526.098 436.199 523.206 437.371C517.424 439.713 509.52 443.148 501.035 447.519C484.119 456.232 464.686 468.766 455.304 483.91C447.344 496.758 445.794 509.112 444.333 520.758C444.176 522.015 444.019 523.265 443.855 524.506C442.175 537.243 439.773 549.16 428.329 560.549C424.555 564.304 419.869 568.198 415.134 571.822ZM389.062 596.71L412.478 620.126C412.877 620.524 413.527 620.516 413.901 620.095C419.26 614.063 422.514 606.12 422.514 597.417C422.514 578.551 407.221 563.258 388.355 563.258C369.489 563.258 354.195 578.551 354.195 597.417C354.195 616.283 369.489 631.576 388.355 631.576C397.058 631.576 405.001 628.322 411.033 622.963C411.454 622.589 411.462 621.939 411.064 621.54L387.648 598.124C387.257 597.734 387.257 597.1 387.648 596.71C388.038 596.319 388.672 596.319 389.062 596.71ZM300.201 488.584C300.634 488.223 300.684 487.576 300.308 487.156C277.503 461.733 244.398 445.74 207.558 445.74C138.766 445.74 83 501.506 83 570.297C83 639.089 138.766 694.855 207.558 694.855C266.73 694.855 316.265 653.594 328.962 598.274C329.099 597.675 328.663 597.096 328.05 597.06L182.964 588.524C182.059 588.471 181.686 587.338 182.383 586.758L300.201 488.584ZM338.237 390.216C338.738 389.982 338.954 389.387 338.72 388.887C338.486 388.386 337.89 388.17 337.39 388.404L315.369 398.704L289.605 408.956C289.358 409.055 289.083 409.051 288.84 408.946L271.035 401.278C270.528 401.059 269.94 401.294 269.721 401.801C269.503 402.308 269.737 402.896 270.244 403.115L288.809 411.11C289.053 411.215 289.328 411.219 289.575 411.121L314.408 401.239C314.895 401.045 315.449 401.26 315.678 401.731L340.518 452.923C340.759 453.42 341.357 453.627 341.854 453.386C342.351 453.145 342.558 452.547 342.317 452.05L317.551 401.011C317.307 400.509 317.522 399.905 318.027 399.669L338.237 390.216Z" fill="#4ABEEA"/>
<path d="M524.476 292.483L532.984 288.256L532.984 288.256L524.476 292.483ZM515.349 322.619L511.207 314.07L511.207 314.07L515.349 322.619ZM478.753 271L478.75 261.5L478.753 271ZM477.753 272L468.253 272.004L468.253 272.004L477.753 272ZM478.754 273L478.75 263.5L478.75 263.5L478.754 273ZM522.685 293.372L514.177 297.599L514.177 297.599L522.685 293.372ZM514.477 320.819L510.335 312.27L510.335 312.27L514.477 320.819ZM497.882 322.456L496.906 331.906L496.906 331.906L497.882 322.456ZM490.887 321.388L489.018 330.702L489.018 330.702L490.887 321.388ZM488.796 320.935L490.967 311.686L490.967 311.686L488.796 320.935ZM488.235 320.8L485.93 330.016L485.937 330.018L488.235 320.8ZM488.186 320.787L485.852 329.996L485.866 330L485.88 330.003L488.186 320.787ZM488.092 320.764L485.722 329.963L485.74 329.968L485.758 329.972L488.092 320.764ZM488.057 320.755L485.668 329.949L485.677 329.952L485.687 329.954L488.057 320.755ZM488.049 320.752L485.627 329.939L485.643 329.943L485.66 329.947L488.049 320.752ZM488.047 320.752L490.469 311.566L490.458 311.563L488.047 320.752ZM487.044 321.057L479.924 314.768L479.924 314.768L487.044 321.057ZM486.865 322.091L495.685 318.562L495.685 318.562L486.865 322.091ZM512.041 390.042L507.23 381.85L507.23 381.85L512.041 390.042ZM505.646 393.813L500.806 385.639L500.806 385.639L505.646 393.813ZM485.014 406.178L489.945 414.298L489.945 414.298L485.014 406.178ZM441.994 433.917L447.694 441.517L447.694 441.517L441.994 433.917ZM416.515 479.895L407.286 477.644L407.286 477.644L416.515 479.895ZM415.676 483.367L424.912 485.59L424.913 485.59L415.676 483.367ZM396.716 524.381L403.16 531.362L403.16 531.362L396.716 524.381ZM343.722 453.966L352.371 450.036L352.371 450.036L343.722 453.966ZM342.171 453.611L348.253 460.91L348.253 460.91L342.171 453.611ZM429.74 561.966L436.441 568.7L436.441 568.7L429.74 561.966ZM445.838 524.767L436.42 523.525L436.42 523.525L445.838 524.767ZM446.314 521.041L436.89 519.842L436.888 519.856L446.314 521.041ZM446.316 521.031L455.74 522.231L455.741 522.217L446.316 521.031ZM446.316 521.024L455.742 522.21L455.744 522.194L455.746 522.179L446.316 521.024ZM446.317 521.02L436.891 519.834L436.889 519.85L436.887 519.865L446.317 521.02ZM457.004 484.963L465.079 489.967L465.08 489.967L457.004 484.963ZM501.951 449.297L506.301 457.742L506.301 457.742L501.951 449.297ZM523.957 439.224L520.39 430.42L520.39 430.42L523.957 439.224ZM530.794 436.57L534.087 445.481L534.087 445.481L530.794 436.57ZM586.303 570.686L577.483 574.215L577.483 574.215L586.303 570.686ZM587.603 571.244L591.131 580.064L591.131 580.064L587.603 571.244ZM588.16 569.944L579.34 573.472L579.34 573.472L588.16 569.944ZM533.921 434.346L542.742 430.818L542.742 430.818L533.921 434.346ZM515.841 389.147L507.021 392.675L515.841 389.147ZM497.676 324.445L498.652 314.996L498.652 314.996L497.676 324.445ZM377.941 536.154L377.111 526.69L377.111 526.69L377.941 536.154ZM372.497 533.84L370.335 543.091L370.336 543.091L372.497 533.84ZM371.139 533.435L374.486 524.545L374.486 524.544L371.139 533.435ZM370.935 533.355L374.557 524.573L374.555 524.572L370.935 533.355ZM370.81 533.302L366.917 541.968L366.936 541.976L366.955 541.985L370.81 533.302ZM370.779 533.288L366.8 541.915L366.843 541.934L366.886 541.954L370.779 533.288ZM370.755 533.277L366.714 541.875L366.745 541.889L366.776 541.904L370.755 533.277ZM370.738 533.269L366.66 541.849L366.678 541.858L366.697 541.866L370.738 533.269ZM370.729 533.264L366.48 541.762L366.565 541.804L366.651 541.845L370.729 533.264ZM370.727 533.263L366.362 541.701L366.42 541.731L366.478 541.76L370.727 533.263ZM370.726 533.263L375.09 524.825L375.048 524.803L375.005 524.781L370.726 533.263ZM369.595 533.422L363.138 526.455L363.138 526.455L369.595 533.422ZM369.352 534.54L360.583 538.195L360.583 538.195L369.352 534.54ZM263.535 554.968L254.045 554.536L254.045 554.536L263.535 554.968ZM264.579 554.033L263.973 563.514L263.973 563.514L264.579 554.033ZM398.073 525.851L404.517 532.831L404.517 532.831L398.073 525.851ZM417.596 483.942L426.833 486.161L426.833 486.161L417.596 483.942ZM418.458 480.369L409.229 478.118L409.229 478.118L418.458 480.369ZM443.194 435.517L437.494 427.917L437.494 427.917L443.194 435.517ZM486.052 407.888L490.983 416.008L490.983 416.008L486.052 407.888ZM506.665 395.534L511.505 403.709L511.505 403.709L506.665 395.534ZM513.053 391.766L508.243 383.574L508.243 383.574L513.053 391.766ZM530.101 434.694L533.394 443.605L533.394 443.605L530.101 434.694ZM523.206 437.371L526.773 446.176L526.773 446.176L523.206 437.371ZM501.035 447.519L496.685 439.074L496.685 439.074L501.035 447.519ZM455.304 483.91L463.379 488.913L463.379 488.913L455.304 483.91ZM444.333 520.758L434.907 519.575L434.907 519.576L444.333 520.758ZM443.855 524.506L434.437 523.264L434.437 523.264L443.855 524.506ZM428.329 560.549L421.628 553.815L421.628 553.815L428.329 560.549ZM389.062 596.71L382.344 603.427L382.345 603.427L389.062 596.71ZM387.648 598.124L394.365 591.407L394.365 591.406L387.648 598.124ZM387.648 596.71L394.365 603.428L394.366 603.427L387.648 596.71ZM182.964 588.524L183.522 579.041L183.522 579.041L182.964 588.524ZM182.383 586.758L188.464 594.056L188.464 594.056L182.383 586.758ZM338.72 388.887L330.114 392.911L330.114 392.911L338.72 388.887ZM338.237 390.216L334.213 381.611L334.213 381.611L338.237 390.216ZM337.39 388.404L341.415 397.01L341.415 397.01L337.39 388.404ZM315.369 398.704L318.881 407.531L319.141 407.428L319.393 407.309L315.369 398.704ZM271.035 401.278L267.277 410.003L267.278 410.003L271.035 401.278ZM269.721 401.801L278.446 405.559L278.446 405.559L269.721 401.801ZM270.244 403.115L266.486 411.84L266.486 411.84L270.244 403.115ZM288.809 411.11L285.052 419.836L285.052 419.836L288.809 411.11ZM289.575 411.121L286.062 402.294L286.062 402.294L289.575 411.121ZM340.518 452.923L331.971 457.07L331.971 457.071L340.518 452.923ZM342.317 452.05L350.864 447.903L350.864 447.903L342.317 452.05ZM317.551 401.011L309.004 405.158L317.551 401.011ZM318.027 399.669L314.002 391.063L318.027 399.669ZM314.408 401.239L310.896 392.412L314.408 401.239ZM315.678 401.731L324.224 397.584L315.678 401.731ZM289.605 408.956L286.092 400.13L289.605 408.956ZM288.84 408.946L285.082 417.671L288.84 408.946ZM328.962 598.274L319.702 596.149L328.962 598.274ZM328.05 597.06L327.492 606.543L327.492 606.543L328.05 597.06ZM300.308 487.156L293.236 493.5L300.308 487.156ZM300.201 488.584L306.283 495.882L300.201 488.584ZM411.033 622.963L417.342 630.066L411.033 622.963ZM411.064 621.54L404.346 628.258L411.064 621.54ZM381.373 536.833L390.023 532.903L381.373 536.833ZM382.063 535.413L379.594 526.239L382.063 535.413ZM393.143 561.572L394.389 552.154L393.143 561.572ZM392.349 560.988L400.998 557.058L392.349 560.988ZM262.397 579.97L271.887 580.402L262.397 579.97ZM264.395 580.061L254.904 579.629L264.395 580.061ZM263.332 581.014L262.726 590.494L263.332 581.014ZM331.788 561.195L322.313 561.879L331.788 561.195ZM330.858 560.275L331.464 550.795L330.858 560.275ZM328.77 595.099L328.212 604.582L328.77 595.099ZM329.806 594.298L320.482 592.478L329.806 594.298ZM187.547 585.058L193.628 592.357L187.547 585.058ZM188.128 586.825L187.57 596.308L188.128 586.825ZM302.942 490.189L310.213 484.076L302.942 490.189ZM301.544 490.068L295.463 482.77L301.544 490.068ZM331.43 557.147L321.982 558.139L331.43 557.147ZM330.376 558.241L330.982 548.76L330.376 558.241ZM377.876 533.971L386.526 530.041L377.876 533.971ZM377.766 534.161L378.595 543.625L378.596 543.625L377.766 534.161ZM334.421 558.5L335.027 549.019L334.421 558.5ZM333.486 557.593L324.033 558.535L333.486 557.593ZM303.276 486.022L297.194 478.723L303.276 486.022ZM301.883 485.917L294.804 492.253L301.883 485.917ZM389.617 559.81L398.266 555.88L389.617 559.81ZM388.652 561.259L388.728 551.759L388.652 561.259ZM383.276 561.611L384.598 571.019L383.276 561.611ZM383.156 561.616L383.763 552.135L383.156 561.616ZM382.655 561.258L373.886 564.913L382.655 561.258ZM333.822 561.608L343.3 560.965L343.3 560.965L333.822 561.608ZM334.888 560.533L334.282 570.014L334.888 560.533ZM332.8 595.336L333.358 585.852L332.8 595.336ZM331.873 594.14L341.205 595.919L331.873 594.14ZM372.015 565.151L376.314 573.623L372.015 565.151ZM371.626 562.882L372.233 553.402L371.626 562.882ZM415.28 621.553L408.208 615.21L415.28 621.553ZM513.345 388.29L504.524 391.818L513.345 388.29ZM512.922 389.525L508.117 381.329L512.922 389.525ZM352.248 595.443L342.762 594.933L352.248 595.443ZM351.175 596.417L350.618 605.9L351.175 596.417ZM378.962 561.348L379.569 551.867L378.962 561.348ZM379.949 559.965L371.18 563.62L379.949 559.965ZM304.494 488.927L311.767 482.816L304.494 488.927ZM304.617 487.507L298.536 480.209L304.617 487.507ZM331.055 598.086L340.326 600.162L331.055 598.086ZM332.095 597.298L332.653 587.814L332.095 597.298ZM266.502 556.16L267.109 546.679L266.502 556.16ZM265.44 557.113L274.93 557.545L265.44 557.113ZM531.514 436.306L528.26 427.381L531.514 436.306ZM532.778 436.873L541.598 433.345L532.778 436.873ZM416.458 574.662L409.079 580.645L416.458 574.662ZM416.621 573.202L422.408 580.736L416.621 573.202ZM412.478 620.126L405.761 626.843L412.478 620.126ZM413.901 620.095L406.799 613.785L413.901 620.095ZM341.436 456.827L335.354 449.529L341.436 456.827ZM342.986 457.182L351.635 453.252L342.986 457.182ZM351.296 598.427L351.854 588.944L351.296 598.427ZM352.249 599.399L361.735 598.886L352.249 599.399ZM413.802 571.728L407.116 578.477L413.802 571.728ZM415.134 571.822L420.909 579.365L415.134 571.822ZM489.836 324.133L498.657 320.605L489.836 324.133ZM490.494 323.349L492.363 314.035L492.363 314.035L490.494 323.349ZM378.091 536.14L378.986 545.598L378.091 536.14ZM379.13 536.73L370.481 540.66L379.13 536.73ZM514.038 391.189L509.235 382.992L509.233 382.993L514.038 391.189ZM514.578 391.374L523.399 387.846L523.399 387.846L514.578 391.374ZM372.04 535.79L380.809 532.135L372.04 535.79ZM372.042 535.788L369.871 545.036L369.881 545.038L372.042 535.788ZM531.291 433.157L522.471 436.685L522.471 436.685L531.291 433.157ZM530.701 434.474L533.963 443.396L530.701 434.474ZM380.787 533.672L378.62 524.422L380.787 533.672ZM379.686 533.118L388.335 529.188L379.686 533.118ZM515.968 296.709C519.723 304.269 517.112 311.209 511.207 314.07L519.491 331.169C536.343 323.004 540.697 303.784 532.984 288.256L515.968 296.709ZM478.756 280.5C501.469 280.492 512.303 289.333 515.968 296.709L532.984 288.256C525.159 272.504 506.263 261.49 478.75 261.5L478.756 280.5ZM487.253 271.997C487.255 276.691 483.451 280.498 478.756 280.5L478.75 261.5C472.95 261.502 468.251 266.205 468.253 272.004L487.253 271.997ZM478.75 263.5C483.445 263.498 487.252 267.303 487.253 271.997L468.253 272.004C468.256 277.803 472.958 282.502 478.757 282.5L478.75 263.5ZM531.193 289.146C523.808 274.28 505.764 263.49 478.75 263.5L478.757 282.5C500.957 282.492 510.948 291.099 514.177 297.599L531.193 289.146ZM518.619 329.369C534.3 321.772 538.5 303.855 531.193 289.146L514.177 297.599C517.503 304.296 515.11 309.956 510.335 312.27L518.619 329.369ZM496.906 331.906C502.658 332.5 511.546 332.796 518.619 329.369L510.335 312.27C508.42 313.198 504.243 313.563 498.858 313.006L496.906 331.906ZM489.018 330.702C491.005 331.101 493.777 331.583 496.906 331.906L498.858 313.006C496.477 312.76 494.32 312.388 492.756 312.074L489.018 330.702ZM486.625 330.184C487.204 330.32 488.019 330.502 489.018 330.702L492.756 312.074C491.981 311.918 491.368 311.781 490.967 311.686L486.625 330.184ZM485.937 330.018C486.104 330.059 486.336 330.116 486.626 330.184L490.967 311.686C490.766 311.639 490.62 311.603 490.533 311.582L485.937 330.018ZM485.88 330.003L485.93 330.016L490.54 311.584L490.491 311.571L485.88 330.003ZM485.758 329.972L485.852 329.996L490.519 311.578L490.426 311.555L485.758 329.972ZM485.687 329.954L485.722 329.963L490.462 311.564L490.427 311.555L485.687 329.954ZM485.66 329.947L485.668 329.949L490.446 311.56L490.438 311.558L485.66 329.947ZM485.626 329.938L485.627 329.939L490.471 311.566L490.469 311.566L485.626 329.938ZM494.164 327.346C492.038 329.753 488.739 330.755 485.636 329.941L490.458 311.563C486.624 310.557 482.549 311.795 479.924 314.768L494.164 327.346ZM495.685 318.562C496.878 321.543 496.289 324.941 494.164 327.346L479.924 314.768C477.299 317.74 476.572 321.937 478.044 325.619L495.685 318.562ZM522.165 384.762L495.685 318.562L478.044 325.619L504.524 391.818L522.165 384.762ZM516.851 398.234C517.174 398.044 517.466 397.873 517.726 397.72L508.117 381.329C507.853 381.484 507.557 381.658 507.23 381.85L516.851 398.234ZM510.486 401.988C513.16 400.404 515.34 399.121 516.851 398.234L507.23 381.85C505.702 382.747 503.502 384.042 500.806 385.639L510.486 401.988ZM489.945 414.298C497.82 409.517 505.137 405.155 510.486 401.988L500.806 385.639C495.416 388.83 488.036 393.229 480.084 398.058L489.945 414.298ZM447.694 441.517C456.339 435.034 474.042 423.954 489.945 414.298L480.084 398.058C464.367 407.6 445.822 419.171 436.294 426.317L447.694 441.517ZM425.745 482.146C429.778 465.609 434.139 451.683 447.694 441.517L436.294 426.317C416.891 440.869 411.357 460.95 407.286 477.644L425.745 482.146ZM424.913 485.59C425.191 484.434 425.466 483.29 425.745 482.146L407.286 477.644C406.999 478.821 406.717 479.993 406.44 481.145L424.913 485.59ZM403.16 531.362C417.308 518.303 421.316 500.535 424.912 485.59L406.44 481.145C402.594 497.126 399.499 508.884 390.273 517.4L403.16 531.362ZM382.953 542.921C389.018 541.501 395.892 538.071 403.16 531.362L390.273 517.4C385.064 522.209 381.053 523.852 378.62 524.422L382.953 542.921ZM335.073 457.896L371.037 537.048L388.335 529.188L352.371 450.036L335.073 457.896ZM348.253 460.91C343.942 464.502 337.394 463.005 335.073 457.896L352.371 450.036C349.503 443.725 341.415 441.875 336.09 446.313L348.253 460.91ZM309.357 493.32L348.253 460.91L336.09 446.313L297.194 478.723L309.357 493.32ZM207.558 453.24C242.222 453.24 273.357 468.295 294.804 492.253L308.961 479.581C284.062 451.766 247.85 434.24 207.558 434.24V453.24ZM90.5 570.297C90.5 505.648 142.909 453.24 207.558 453.24V434.24C132.415 434.24 71.5 495.155 71.5 570.297H90.5ZM207.558 687.355C142.909 687.355 90.5 634.947 90.5 570.297H71.5C71.5 645.44 132.415 706.355 207.558 706.355V687.355ZM321.785 596.009C310.072 648.292 263.365 687.355 207.558 687.355V706.355C272.449 706.355 326.71 660.936 340.326 600.162L321.785 596.009ZM351.854 588.944L332.653 587.814L331.537 606.781L350.739 607.911L351.854 588.944ZM388.355 624.076C374.125 624.076 362.493 612.922 361.735 598.886L342.763 599.911C344.062 623.972 363.974 643.076 388.355 643.076V624.076ZM406.148 617.27C401.422 621.509 395.2 624.076 388.355 624.076V643.076C400.061 643.076 410.759 638.658 418.835 631.414L406.148 617.27ZM421.485 618.526L420.612 617.653L407.177 631.088L408.05 631.961L421.485 618.526ZM415.474 616.036C417.729 616.036 419.891 616.932 421.485 618.526L408.05 631.961C410.019 633.93 412.69 635.036 415.474 635.036V616.036ZM433.554 616.036H415.474V635.036H433.554V616.036ZM425.054 624.536C425.054 619.842 428.86 616.036 433.554 616.036V635.036C439.353 635.036 444.054 630.336 444.054 624.536H425.054ZM433.554 633.036C428.86 633.036 425.054 629.231 425.054 624.536H444.054C444.054 618.737 439.353 614.036 433.554 614.036V633.036ZM416.303 633.036H433.554V614.036H416.303V633.036ZM408.591 629.674L408.878 629.961L422.313 616.526L422.026 616.239L408.591 629.674ZM415.014 597.417C415.014 604.262 412.447 610.484 408.208 615.21L422.352 627.897C429.596 619.821 434.014 609.123 434.014 597.417H415.014ZM409.079 580.645C412.795 585.228 415.014 591.051 415.014 597.417H434.014C434.014 586.538 430.197 576.524 423.838 568.68L409.079 580.645ZM423.039 555.232C419.664 558.591 415.364 562.189 410.835 565.668L422.408 580.736C427.263 577.008 432.263 572.857 436.441 568.7L423.039 555.232ZM436.42 523.525C434.795 535.843 432.662 545.656 423.039 555.232L436.441 568.7C450.677 554.533 453.492 539.391 455.257 526.009L436.42 523.525ZM436.888 519.856C436.731 521.106 436.579 522.319 436.42 523.525L455.256 526.01C455.424 524.737 455.584 523.467 455.74 522.227L436.888 519.856ZM436.892 519.832L436.89 519.842L455.738 522.241L455.74 522.231L436.892 519.832ZM436.891 519.838L436.89 519.846L455.741 522.217L455.742 522.21L436.891 519.838ZM436.887 519.865L436.887 519.869L455.746 522.179L455.747 522.174L436.887 519.865ZM448.928 479.96C439.998 494.373 438.351 508.231 436.891 519.834L455.743 522.205C457.218 510.479 458.571 500.471 465.079 489.967L448.928 479.96ZM497.601 440.852C480.588 449.615 459.481 462.928 448.928 479.96L465.08 489.967C472.668 477.718 489.534 466.38 506.301 457.742L497.601 440.852ZM520.39 430.42C514.458 432.823 506.338 436.351 497.601 440.852L506.301 457.742C514.4 453.571 521.973 450.278 527.524 448.029L520.39 430.42ZM527.501 427.659C525.796 428.289 523.361 429.216 520.39 430.42L527.524 448.029C530.294 446.907 532.545 446.051 534.087 445.481L527.501 427.659ZM528.26 427.381C528.026 427.466 527.773 427.559 527.501 427.659L534.087 445.481C534.333 445.39 534.56 445.307 534.769 445.231L528.26 427.381ZM595.124 567.158L541.598 433.345L523.957 440.401L577.483 574.215L595.124 567.158ZM584.075 562.423C588.433 560.68 593.38 562.799 595.124 567.158L577.483 574.215C579.636 579.599 585.747 582.218 591.131 580.064L584.075 562.423ZM579.34 573.472C577.596 569.113 579.717 564.166 584.075 562.423L591.131 580.064C596.515 577.91 599.135 571.8 596.98 566.415L579.34 573.472ZM525.1 437.874L579.34 573.472L596.981 566.415L542.742 430.818L525.1 437.874ZM507.021 392.675L525.1 437.874L542.742 430.818L524.662 385.618L507.021 392.675ZM481.015 327.662L507.021 392.675L524.662 385.618L498.657 320.605L481.015 327.662ZM498.652 314.996C496.192 314.742 493.971 314.357 492.363 314.035L488.625 332.663C490.657 333.071 493.493 333.564 496.7 333.895L498.652 314.996ZM511.207 314.07C508.747 315.261 504.072 315.556 498.652 314.996L496.7 333.895C502.497 334.494 511.877 334.857 519.491 331.169L511.207 314.07ZM361.735 595.953C362.259 586.209 368.029 577.827 376.314 573.623L367.716 556.68C353.586 563.85 343.664 578.177 342.762 594.933L361.735 595.953ZM332.242 604.819L350.618 605.9L351.733 586.933L333.358 585.852L332.242 604.819ZM324.616 570.297C324.616 577.848 323.902 585.223 322.541 592.361L341.205 595.919C342.789 587.614 343.616 579.048 343.616 570.297H324.616ZM324.344 562.251C324.524 564.908 324.616 567.591 324.616 570.297H343.616C343.616 567.162 343.51 564.05 343.3 560.965L324.344 562.251ZM372.233 553.402L335.495 551.053L334.282 570.014L371.02 572.363L372.233 553.402ZM363.271 539.445L373.886 564.913L391.424 557.603L380.809 532.135L363.271 539.445ZM377.111 526.69C375.706 526.813 374.717 526.657 374.203 526.537L369.881 545.038C372.143 545.567 375.157 545.934 378.77 545.617L377.111 526.69ZM377.197 526.682C377.168 526.685 377.14 526.687 377.111 526.69L378.77 545.617C378.841 545.611 378.914 545.604 378.986 545.598L377.197 526.682ZM398.266 555.88L387.779 532.8L370.481 540.66L380.968 563.739L398.266 555.88ZM388.355 570.758C388.429 570.758 388.502 570.758 388.575 570.758L388.728 551.759C388.604 551.758 388.479 551.758 388.355 551.758V570.758ZM384.598 571.019C385.821 570.847 387.075 570.758 388.355 570.758V551.758C386.187 551.758 384.05 551.909 381.953 552.204L384.598 571.019ZM333.815 567.98L378.356 570.828L379.569 551.867L335.027 549.019L333.815 567.98ZM297.221 495.039C311.959 512.579 321.636 534.486 324.033 558.535L342.939 556.651C340.15 528.671 328.886 503.188 311.767 482.816L297.221 495.039ZM335.354 449.529L298.536 480.209L310.699 494.806L347.517 464.126L335.354 449.529ZM386.526 530.041L351.635 453.252L334.337 461.112L369.227 537.901L386.526 530.041ZM370.336 543.091C372.414 543.577 375.215 543.921 378.595 543.625L376.937 524.697C375.764 524.8 374.988 524.666 374.658 524.589L370.336 543.091ZM367.791 542.326C368.447 542.573 369.3 542.849 370.335 543.091L374.658 524.589C374.489 524.55 374.428 524.523 374.486 524.545L367.791 542.326ZM367.312 542.137C367.46 542.198 367.62 542.262 367.792 542.326L374.486 524.544C374.499 524.549 374.523 524.559 374.557 524.573L367.312 542.137ZM366.955 541.985C367.064 542.033 367.184 542.084 367.315 542.138L374.555 524.572C374.585 524.584 374.622 524.6 374.666 524.619L366.955 541.985ZM366.886 541.954L366.917 541.968L374.703 524.636L374.672 524.622L366.886 541.954ZM366.776 541.904L366.8 541.915L374.758 524.661L374.734 524.65L366.776 541.904ZM366.697 541.866L366.714 541.875L374.797 524.68L374.779 524.671L366.697 541.866ZM366.651 541.845L366.66 541.849L374.816 524.689L374.807 524.684L366.651 541.845ZM366.479 541.761L366.48 541.762L374.977 524.767L374.976 524.767L366.479 541.761ZM366.478 541.76L366.479 541.761L374.976 524.767L374.975 524.766L366.478 541.76ZM366.361 541.701L366.362 541.701L375.091 524.825L375.09 524.825L366.361 541.701ZM376.053 540.39C373.448 542.805 369.617 543.344 366.447 541.745L375.005 524.781C371.089 522.806 366.356 523.472 363.138 526.455L376.053 540.39ZM378.121 530.886C379.491 534.174 378.666 537.968 376.053 540.39L363.138 526.455C359.91 529.446 358.89 534.133 360.583 538.195L378.121 530.886ZM388.718 556.31L378.121 530.886L360.583 538.195L371.18 563.62L388.718 556.31ZM340.878 556.156C338.013 528.848 326.95 503.983 310.213 484.076L295.67 496.303C310.045 513.401 319.525 534.725 321.982 558.139L340.878 556.156ZM295.463 482.77L181.465 577.76L193.628 592.357L307.626 497.366L295.463 482.77ZM187.57 596.308L328.212 604.582L329.328 585.615L188.686 577.341L187.57 596.308ZM339.13 596.118C340.762 587.755 341.616 579.122 341.616 570.297H322.616C322.616 577.893 321.881 585.308 320.482 592.478L339.13 596.118ZM341.616 570.297C341.616 567.008 341.497 563.744 341.264 560.51L322.313 561.879C322.514 564.657 322.616 567.465 322.616 570.297H341.616ZM331.464 550.795L267.109 546.679L265.896 565.641L330.252 569.756L331.464 550.795ZM255.949 556.68L254.904 579.629L273.885 580.493L274.93 557.545L255.949 556.68ZM271.887 580.402L273.026 555.401L254.045 554.536L252.907 579.538L271.887 580.402ZM273.026 555.401C272.809 560.159 268.725 563.818 263.973 563.514L265.185 544.553C259.33 544.178 254.312 548.675 254.045 554.536L273.026 555.401ZM263.973 563.514L329.77 567.722L330.982 548.76L265.185 544.553L263.973 563.514ZM391.897 570.99C397.784 571.769 403.075 574.474 407.116 578.477L420.488 564.978C413.599 558.154 404.523 553.495 394.389 552.154L391.897 570.99ZM372.724 540.763L383.7 564.918L400.998 557.058L390.023 532.903L372.724 540.763ZM391.629 518.87C386.507 523.598 382.383 525.488 379.594 526.239L384.533 544.586C390.682 542.931 397.46 539.345 404.517 532.831L391.629 518.87ZM408.358 481.724C404.558 497.549 401.328 509.917 391.629 518.87L404.517 532.831C419.123 519.349 423.265 501.018 426.833 486.161L408.358 481.724ZM409.229 478.118C408.934 479.327 408.644 480.535 408.358 481.724L426.833 486.161C427.12 484.966 427.402 483.791 427.688 482.62L409.229 478.118ZM437.494 427.917C418.706 442.008 413.296 461.443 409.229 478.118L427.688 482.62C431.717 466.097 435.956 452.821 448.894 443.117L437.494 427.917ZM481.122 399.767C465.385 409.322 446.929 420.841 437.494 427.917L448.894 443.117C457.445 436.704 475.06 425.675 490.983 416.008L481.122 399.767ZM501.825 387.36C496.439 390.549 489.066 394.944 481.122 399.767L490.983 416.008C498.85 411.231 506.16 406.873 511.505 403.709L501.825 387.36ZM508.243 383.574C506.717 384.471 504.518 385.765 501.825 387.36L511.505 403.709C514.177 402.127 516.355 400.844 517.864 399.958L508.243 383.574ZM509.233 382.993C508.944 383.163 508.613 383.357 508.243 383.574L517.864 399.958C518.23 399.743 518.557 399.552 518.842 399.385L509.233 382.993ZM540.112 429.629L523.399 387.846L505.758 394.902L522.471 436.685L540.112 429.629ZM533.394 443.605C533.596 443.531 533.786 443.461 533.963 443.396L527.44 425.551C527.241 425.623 527.031 425.701 526.808 425.783L533.394 443.605ZM526.773 446.176C529.564 445.045 531.834 444.182 533.394 443.605L526.808 425.783C525.086 426.42 522.631 427.354 519.639 428.566L526.773 446.176ZM505.385 455.964C513.551 451.758 521.181 448.441 526.773 446.176L519.639 428.566C513.666 430.985 505.489 434.538 496.685 439.074L505.385 455.964ZM463.379 488.913C471.281 476.161 488.593 464.614 505.385 455.964L496.685 439.074C479.645 447.851 458.092 461.372 447.228 478.906L463.379 488.913ZM453.759 521.94C455.226 510.246 456.628 499.809 463.379 488.913L447.228 478.906C438.059 493.706 436.362 507.979 434.907 519.575L453.759 521.94ZM453.274 525.748C453.442 524.472 453.602 523.193 453.759 521.94L434.907 519.576C434.749 520.838 434.596 522.058 434.437 523.264L453.274 525.748ZM435.03 567.283C448.781 553.599 451.524 539.017 453.274 525.748L434.437 523.264C432.827 535.47 430.765 544.722 421.628 553.815L435.03 567.283ZM420.909 579.365C425.805 575.618 430.848 571.444 435.03 567.283L421.628 553.815C418.262 557.164 413.933 560.777 409.36 564.279L420.909 579.365ZM419.196 613.408L395.78 589.992L382.345 603.427L405.761 626.843L419.196 613.408ZM413.014 597.417C413.014 603.706 410.673 609.425 406.799 613.785L421.004 626.404C427.847 618.7 432.014 608.534 432.014 597.417H413.014ZM388.355 572.758C401.974 572.758 413.014 583.798 413.014 597.417H432.014C432.014 573.305 412.467 553.758 388.355 553.758V572.758ZM363.695 597.417C363.695 583.798 374.736 572.758 388.355 572.758V553.758C364.242 553.758 344.695 573.305 344.695 597.417H363.695ZM388.355 622.076C374.736 622.076 363.695 611.036 363.695 597.417H344.695C344.695 621.529 364.242 641.076 388.355 641.076V622.076ZM404.723 615.861C400.363 619.735 394.644 622.076 388.355 622.076V641.076C399.472 641.076 409.638 636.909 417.342 630.066L404.723 615.861ZM380.93 604.842L404.346 628.258L417.781 614.823L394.365 591.407L380.93 604.842ZM380.931 589.992C376.83 594.093 376.83 600.741 380.931 604.842L394.365 591.406C397.685 594.726 397.685 600.108 394.365 603.428L380.931 589.992ZM395.78 589.993C391.679 585.892 385.031 585.892 380.93 589.993L394.366 603.427C391.046 606.747 385.664 606.747 382.344 603.427L395.78 589.993ZM207.558 455.24C241.588 455.24 272.157 470.001 293.236 493.5L307.38 480.813C282.849 453.466 247.209 436.24 207.558 436.24V455.24ZM92.5 570.297C92.5 506.753 144.013 455.24 207.558 455.24V436.24C133.52 436.24 73.5 496.259 73.5 570.297H92.5ZM207.558 685.355C144.013 685.355 92.5 633.842 92.5 570.297H73.5C73.5 644.336 133.52 704.355 207.558 704.355V685.355ZM319.702 596.149C307.975 647.249 262.205 685.355 207.558 685.355V704.355C271.255 704.355 324.556 659.94 338.221 600.399L319.702 596.149ZM182.406 598.008L327.492 606.543L328.607 587.576L183.522 579.041L182.406 598.008ZM176.301 579.46C168.99 585.552 172.905 597.449 182.406 598.008L183.522 579.041C191.213 579.493 194.383 589.125 188.464 594.056L176.301 579.46ZM294.12 481.285L176.301 579.46L188.464 594.056L306.283 495.882L294.12 481.285ZM330.114 392.911C328.126 388.659 329.96 383.6 334.213 381.611L342.262 398.821C347.515 396.365 349.782 390.114 347.325 384.862L330.114 392.911ZM341.415 397.01C337.163 398.999 332.103 397.164 330.114 392.911L347.325 384.862C344.868 379.609 338.618 377.342 333.365 379.799L341.415 397.01ZM319.393 407.309L341.415 397.01L333.365 379.799L311.344 390.099L319.393 407.309ZM293.117 417.783L318.881 407.531L311.856 389.877L286.092 400.13L293.117 417.783ZM267.278 410.003L285.082 417.671L292.597 400.221L274.793 392.553L267.278 410.003ZM278.446 405.559C276.59 409.87 271.589 411.86 267.277 410.003L274.793 392.553C269.467 390.259 263.29 392.717 260.996 398.043L278.446 405.559ZM274.002 394.39C278.313 396.246 280.303 401.247 278.446 405.559L260.996 398.043C258.702 403.369 261.161 409.546 266.486 411.84L274.002 394.39ZM292.567 402.385L274.002 394.39L266.486 411.84L285.052 419.836L292.567 402.385ZM286.062 402.294C288.157 401.461 290.497 401.494 292.567 402.385L285.052 419.836C287.609 420.937 290.499 420.978 293.087 419.948L286.062 402.294ZM310.896 392.412L286.062 402.294L293.087 419.948L317.921 410.066L310.896 392.412ZM349.064 448.776L324.224 397.584L307.131 405.879L331.971 457.07L349.064 448.776ZM337.707 444.839C341.93 442.79 347.015 444.552 349.064 448.776L331.971 457.071C334.502 462.288 340.784 464.465 346.001 461.933L337.707 444.839ZM333.77 456.197C331.721 451.974 333.483 446.889 337.707 444.839L346.001 461.933C351.218 459.402 353.395 453.12 350.864 447.903L333.77 456.197ZM309.004 405.158L333.77 456.197L350.864 447.903L326.098 396.864L309.004 405.158ZM334.213 381.611L314.002 391.063L322.052 408.274L342.262 398.821L334.213 381.611ZM326.098 396.864C328.168 401.13 326.347 406.265 322.052 408.274L314.002 391.063C308.696 393.545 306.447 399.888 309.004 405.158L326.098 396.864ZM317.921 410.066C313.782 411.712 309.075 409.886 307.131 405.879L324.224 397.584C321.823 392.634 316.007 390.378 310.896 392.412L317.921 410.066ZM286.092 400.13C288.187 399.296 290.527 399.329 292.597 400.221L285.082 417.671C287.639 418.773 290.53 418.813 293.117 417.783L286.092 400.13ZM338.221 600.399C339.679 594.047 335.062 587.956 328.607 587.576L327.492 606.543C322.264 606.236 318.519 601.303 319.702 596.149L338.221 600.399ZM293.236 493.5C289.985 489.875 290.456 484.338 294.12 481.285L306.283 495.882C310.812 492.108 311.383 485.276 307.38 480.813L293.236 493.5ZM417.342 630.066C421.992 625.934 421.911 618.952 417.781 614.823L404.346 628.258C401.014 624.926 400.916 619.243 404.723 615.861L417.342 630.066ZM390.023 532.903C392.31 537.937 389.285 543.307 384.533 544.586L379.594 526.239C373.612 527.85 369.91 534.569 372.724 540.763L390.023 532.903ZM394.389 552.154C397.206 552.526 399.752 554.316 400.998 557.058L383.7 564.918C385.236 568.298 388.386 570.525 391.897 570.99L394.389 552.154ZM263.938 571.533C268.562 571.829 272.098 575.774 271.887 580.402L252.907 579.538C252.646 585.256 257.013 590.129 262.726 590.494L263.938 571.533ZM254.904 579.629C255.121 574.878 259.192 571.229 263.938 571.533L262.726 590.494C268.588 590.869 273.617 586.362 273.885 580.493L254.904 579.629ZM341.264 560.51C340.883 555.237 336.659 551.127 331.464 550.795L330.252 569.756C326.05 569.487 322.622 566.16 322.313 561.879L341.264 560.51ZM328.212 604.582C333.415 604.888 338.115 601.316 339.13 596.118L320.482 592.478C321.305 588.258 325.119 585.367 329.328 585.615L328.212 604.582ZM181.465 577.76C174.154 583.852 178.07 595.75 187.57 596.308L188.686 577.341C196.377 577.794 199.547 587.425 193.628 592.357L181.465 577.76ZM310.213 484.076C306.463 479.615 299.863 479.103 295.463 482.77L307.626 497.366C304.066 500.332 298.715 499.925 295.67 496.303L310.213 484.076ZM321.982 558.139C321.427 552.853 325.773 548.427 330.982 548.76L329.77 567.722C336.208 568.133 341.561 562.666 340.878 556.156L321.982 558.139ZM369.227 537.901C366.584 532.082 370.432 525.268 376.936 524.698L378.596 543.625C385.286 543.038 389.246 536.029 386.526 530.041L369.227 537.901ZM335.027 549.019C339.229 549.288 342.532 552.564 342.939 556.651L324.033 558.535C324.538 563.602 328.631 567.649 333.815 567.98L335.027 549.019ZM297.194 478.723C300.745 475.764 305.942 476.208 308.961 479.581L294.804 492.253C298.546 496.433 304.974 496.972 309.357 493.32L297.194 478.723ZM380.968 563.739C378.266 557.793 382.88 551.712 388.728 551.759L388.575 570.758C395.925 570.818 401.588 563.192 398.266 555.88L380.968 563.739ZM382.55 571.097C383.241 571.141 383.927 571.113 384.598 571.019L381.953 552.204C382.545 552.121 383.152 552.096 383.763 552.135L382.55 571.097ZM383.763 552.135C387.149 552.352 390.119 554.472 391.424 557.603L373.886 564.913C375.362 568.455 378.72 570.852 382.55 571.097L383.763 552.135ZM343.3 560.965C343.644 566.029 339.464 570.345 334.282 570.014L335.495 551.053C329.099 550.644 323.918 555.974 324.344 562.251L343.3 560.965ZM333.358 585.852C338.535 586.157 342.154 590.94 341.205 595.919L322.541 592.361C321.365 598.533 325.854 604.443 332.242 604.819L333.358 585.852ZM376.314 573.623C381.545 570.969 382.516 565.602 381.967 562.3C381.413 558.966 378.559 553.806 372.233 553.402L371.02 572.363C365.785 572.028 363.613 567.756 363.224 565.415C362.84 563.106 363.46 558.839 367.716 556.68L376.314 573.623ZM422.026 616.239C425.326 619.538 425.252 624.664 422.352 627.897L408.208 615.21C404.585 619.249 404.526 625.609 408.591 629.674L422.026 616.239ZM504.524 391.818C502.962 387.912 504.492 383.455 508.117 381.329L517.726 397.72C522.205 395.094 524.095 389.587 522.165 384.762L504.524 391.818ZM342.762 594.933C343.004 590.431 346.852 586.646 351.733 586.933L350.618 605.9C356.627 606.254 361.432 601.585 361.735 595.953L342.762 594.933ZM416.303 614.036C418.557 614.036 420.719 614.932 422.313 616.526L408.878 629.961C410.847 631.93 413.518 633.036 416.303 633.036V614.036ZM418.835 631.414C415.602 634.314 410.476 634.388 407.177 631.088L420.612 617.653C416.547 613.588 410.186 613.647 406.148 617.27L418.835 631.414ZM378.356 570.828C386.123 571.325 391.712 563.494 388.718 556.31L371.18 563.62C368.756 557.804 373.281 551.465 379.569 551.867L378.356 570.828ZM311.767 482.816C314.763 486.381 314.35 491.763 310.699 494.806L298.536 480.209C294.028 483.965 293.508 490.621 297.221 495.039L311.767 482.816ZM340.326 600.162C339.43 604.161 335.759 607.03 331.537 606.781L332.653 587.814C327.447 587.508 322.897 591.048 321.785 596.009L340.326 600.162ZM267.109 546.679C261.246 546.305 256.217 550.812 255.949 556.68L274.93 557.545C274.713 562.295 270.642 565.944 265.896 565.641L267.109 546.679ZM534.769 445.231C530.415 446.819 525.649 444.631 523.957 440.401L541.598 433.345C539.507 428.117 533.624 425.425 528.26 427.381L534.769 445.231ZM423.838 568.68C426.744 572.265 426.31 577.739 422.408 580.736L410.835 565.668C406.019 569.367 405.447 576.165 409.079 580.645L423.838 568.68ZM405.761 626.843C409.89 630.973 416.872 631.054 421.004 626.404L406.799 613.785C410.181 609.978 415.864 610.076 419.196 613.408L405.761 626.843ZM347.517 464.126C343.206 467.718 336.659 466.221 334.337 461.112L351.635 453.252C348.768 446.941 340.68 445.092 335.354 449.529L347.517 464.126ZM350.739 607.911C346.255 607.647 342.986 604.042 342.763 599.911L361.735 598.886C361.456 593.721 357.373 589.268 351.854 588.944L350.739 607.911ZM407.116 578.477C410.728 582.055 416.604 582.661 420.909 579.365L409.36 564.279C412.859 561.6 417.597 562.115 420.488 564.978L407.116 578.477ZM498.657 320.605C501.333 327.298 495.452 334.033 488.625 332.663L492.363 314.035C484.631 312.483 477.996 320.113 481.015 327.662L498.657 320.605ZM378.986 545.598C375.573 545.92 372.051 544.116 370.481 540.66L387.779 532.8C385.846 528.545 381.483 526.277 377.197 526.682L378.986 545.598ZM518.84 399.386C514.026 402.206 507.83 400.083 505.758 394.902L523.399 387.846C521.155 382.237 514.447 379.938 509.235 382.992L518.84 399.386ZM380.809 532.135C383.79 539.287 377.414 546.807 369.871 545.036L374.213 526.539C366.667 524.767 360.289 532.29 363.271 539.445L380.809 532.135ZM522.471 436.685C520.677 432.199 522.976 427.182 527.44 425.551L533.963 443.396C539.491 441.375 542.327 435.167 540.112 429.629L522.471 436.685ZM378.62 524.422C382.781 523.448 386.738 525.674 388.335 529.188L371.037 537.048C373.017 541.407 377.889 544.108 382.953 542.921L378.62 524.422Z" fill="#4ABEEA"/>
<g clip-path="url(#clip1_1_2)">
<path d="M840.575 675.342C820.628 656.457 793.799 644.777 764.216 644.776C734.373 644.775 707.347 656.576 687.383 675.636L763.815 752.074L840.575 675.342Z" fill="#4EBE4B"/>
<path d="M764.418 480.601C740.362 480.6 718.137 472.689 700.155 459.411L763.842 395.721L828.088 459.972C810.197 472.922 788.223 480.602 764.418 480.601Z" fill="#FFF200"/>
<path d="M756.64 507.025C757.761 513.963 753.069 520.426 746.178 521.512C739.287 522.612 732.808 517.912 731.722 511.063C730.601 504.151 735.293 497.667 742.184 496.584C749.066 495.455 755.554 500.159 756.64 507.025Z" fill="#4ABEEA"/>
<path d="M756.641 560.236C757.781 567.135 753.07 573.619 746.179 574.694C739.288 575.837 732.827 571.126 731.724 564.259C730.602 557.344 735.294 550.86 742.168 549.774C749.068 548.649 755.555 553.345 756.641 560.236Z" fill="#4ABEEA"/>
<path d="M797.719 605.274C798.805 612.152 794.148 618.636 787.221 619.75C780.321 620.826 773.87 616.157 772.766 609.276C771.644 602.364 776.337 595.905 783.228 594.801C790.119 593.673 796.579 598.38 797.719 605.274Z" fill="#4ABEEA"/>
<path d="M810.333 534.984C811.437 541.84 806.762 548.324 799.853 549.439C792.971 550.564 786.502 545.863 785.38 538.965C784.258 532.077 788.978 525.593 795.842 524.489C802.751 523.378 809.211 528.082 810.333 534.984Z" fill="#4ABEEA"/>
<path d="M878.708 637.461L855.62 614.39L879.523 590.485L831.698 590.484L815.143 573.911L831.231 557.813L879.962 557.814L855.601 533.418L878.714 510.345L942 573.634L878.708 637.461Z" fill="#4ABEEA"/>
</g>
<path d="M616.495 546.654L608.797 554.355C614.226 559.791 616.891 566.816 616.909 573.938C616.891 581.06 614.226 588.077 608.816 593.496C603.379 598.918 596.353 601.589 589.238 601.603C582.104 601.589 575.078 598.917 569.641 593.485C564.221 588.059 561.547 581.038 561.538 573.919C561.547 566.8 564.22 559.783 569.64 554.354L569.918 554.081L569.631 554.357C575.077 548.931 582.103 546.258 589.227 546.247C596.352 546.261 603.368 548.925 608.788 554.351L608.797 554.355L616.495 546.654L624.194 538.961C614.575 529.315 601.851 524.456 589.227 524.47C576.602 524.456 563.879 529.32 554.242 538.948L554.529 538.665L554.242 538.955C544.606 548.581 539.752 561.3 539.761 573.919C539.753 586.536 544.607 599.257 554.244 608.886C563.881 618.529 576.614 623.394 589.238 623.38C601.863 623.391 614.577 618.53 624.214 608.898C633.841 599.277 638.695 586.56 638.686 573.938C638.694 561.32 633.84 548.593 624.194 538.957L624.481 539.242L624.194 538.961L616.495 546.654Z" fill="#4ABEEA"/>
<path d="M643.763 519.368L636.064 527.068C649.03 540.041 655.464 556.928 655.474 573.921C655.465 590.914 649.023 607.805 636.067 620.774C623.11 633.721 606.206 640.163 589.212 640.177C572.226 640.162 555.339 633.733 542.373 620.771C529.408 607.802 522.983 590.921 522.964 573.942C522.982 556.95 529.424 540.059 542.389 527.09C555.363 514.122 572.25 507.68 589.244 507.666C606.221 507.681 623.09 514.11 636.064 527.068L643.763 519.368L651.461 511.667C634.296 494.502 611.72 485.88 589.244 485.889C566.74 485.878 544.147 494.518 526.991 511.688C509.818 528.845 501.178 551.443 501.187 573.942C501.179 596.424 509.802 619.007 526.977 636.172C544.142 653.344 566.727 661.964 589.212 661.953C611.716 661.965 634.309 653.336 651.464 636.175C668.629 619.011 677.269 596.417 677.251 573.922C677.268 551.43 668.636 528.836 651.461 511.667L643.763 519.368Z" fill="#4ABEEA"/>
<path d="M671.03 492.096L663.332 499.796C683.835 520.301 694.038 547.053 694.047 573.904C694.039 600.772 683.82 627.543 663.336 648.043C642.842 668.53 616.077 678.736 589.213 678.746C562.366 678.735 535.609 668.538 515.106 648.04C494.612 627.546 484.418 600.801 484.399 573.952C484.417 547.082 494.627 520.311 515.12 499.802C535.613 479.316 562.379 469.106 589.243 469.097C616.09 469.107 642.838 479.301 663.332 499.796L671.03 492.096L678.729 484.398C654.044 459.69 621.589 447.306 589.243 447.316C556.878 447.304 524.415 459.708 499.723 484.404C475.012 509.104 462.613 541.579 462.623 573.952C462.614 606.3 474.998 638.754 499.709 663.441C524.403 688.149 556.866 700.537 589.213 700.528C621.578 700.538 654.041 688.138 678.733 663.445C703.435 638.746 715.834 606.279 715.824 573.905C715.841 541.554 703.449 509.092 678.729 484.395L679.132 484.798L678.729 484.398L671.03 492.096Z" fill="#4ABEEA"/>
<path d="M601.981 572.117C603.104 579.083 598.39 585.571 591.462 586.666C584.542 587.78 578.041 583.047 576.934 576.174C575.811 569.234 580.541 562.72 587.452 561.634C594.372 560.506 600.874 565.221 601.981 572.117Z" fill="#4ABEEA"/>
</g>
<defs>
<clipPath id="clip0_1_2">
<rect width="1024" height="1024" fill="white"/>
</clipPath>
<clipPath id="clip1_1_2">
<rect width="356.352" height="356.352" fill="white" transform="translate(585.648 395.721)"/>
</clipPath>
</defs>
</svg>
